<svg width="62" height="62" viewBox="0 0 62 62" fill="none" xmlns="http://www.w3.org/2000/svg">
                                <circle opacity="0.2" cx="31" cy="31" r="31" fill="white" />
                                <circle cx="31" cy="31" r="26" fill="white" />
                                <g clip-path="url(#clip0_12_4518)">
                                    <path
                                        d="M41.6929 24.6274C42.4669 24.0921 42.9752 23.1988 42.9752 22.1886C42.9752 21.7175 42.8678 21.267 42.6561 20.8495L41.9784 21.1932C42.1357 21.5032 42.2154 21.838 42.2154 22.1885C42.2154 23.4039 41.2266 24.3926 40.0113 24.3926C38.796 24.3926 37.8073 23.4038 37.8073 22.1885C37.8073 20.9732 38.796 19.9845 40.0113 19.9845C40.6087 19.9845 41.1678 20.2195 41.5859 20.6463L42.1287 20.1145C41.5666 19.5407 40.8146 19.2246 40.0113 19.2246C38.377 19.2246 37.0474 20.5542 37.0474 22.1885C37.0474 23.2004 37.5574 24.0951 38.3336 24.6302C36.9969 25.0952 36.0347 26.367 36.0347 27.8601V33.2782C36.0347 34.0282 36.6305 34.6417 37.3737 34.6702V42.7755H42.6928V34.6687C43.4211 34.6242 44 34.0176 44 33.2783V27.8601C44 26.364 43.0338 25.0901 41.6929 24.6274ZM43.2401 33.2782C43.2401 33.6274 42.9561 33.9114 42.6069 33.9114H41.9329V42.0157H40.3973V35.275H39.6374V42.0157H38.1335V33.9114H37.4277C37.0785 33.9114 36.7945 33.6274 36.7945 33.2782V27.8601C36.7945 26.3936 37.9876 25.2006 39.4541 25.2006H40.5805C42.047 25.2006 43.2401 26.3936 43.2401 27.8601V33.2782H43.2401ZM32.6621 27.6669C33.4361 27.1316 33.9444 26.2383 33.9444 25.2281C33.9444 23.5937 32.6148 22.2642 30.9805 22.2642C29.3462 22.2642 28.0166 23.5938 28.0166 25.2281C28.0166 26.24 28.5266 27.1347 29.3028 27.6697C27.9661 28.1348 27.0039 29.4065 27.0039 30.8996V34.6967C27.0039 35.4181 27.555 36.0131 28.2584 36.083V42.7756H33.5775V36.0897C34.345 36.089 34.9692 35.4643 34.9692 34.6966V32.5167H34.2094V34.6966C34.2094 35.0458 33.9253 35.3299 33.5761 35.3299H32.8176V42.0157H31.2947V36.7947H30.5348V42.0157H29.0182V35.3299H28.3969C28.0477 35.3299 27.7637 35.0458 27.7637 34.6966V30.8996C27.7637 29.4331 28.9567 28.24 30.4233 28.24H31.5497C33.0162 28.24 34.2093 29.4331 34.2093 30.8996V31.7599H34.9691V30.8996C34.9692 29.4035 34.003 28.1296 32.6621 27.6669ZM30.9805 27.4321C29.7652 27.4321 28.7765 26.4434 28.7765 25.2281C28.7765 24.0128 29.7652 23.024 30.9805 23.024C32.1958 23.024 33.1845 24.0128 33.1845 25.2281C33.1845 26.4434 32.1958 27.4321 30.9805 27.4321ZM23.6582 30.1998C24.4322 29.6645 24.9406 28.7712 24.9406 27.761C24.9406 26.1267 23.6109 24.7971 21.9766 24.7971C20.3423 24.7971 19.0127 26.1267 19.0127 27.761C19.0127 28.7729 19.5227 29.6675 20.2988 30.2025C19.5203 30.4731 18.8512 31.0209 18.4357 31.7612L19.0983 32.1331C19.5691 31.2941 20.4586 30.773 21.4194 30.773H22.5459C24.0124 30.773 25.2054 31.9661 25.2054 33.4326V35.8618C25.2054 36.211 24.9214 36.4951 24.5722 36.4951H23.7022V42.0157H22.1825V37.839H21.4226V42.0157H19.9028V36.495H19.3931C19.0439 36.495 18.7599 36.211 18.7599 35.8618V33.4325C18.7599 33.1997 18.7899 32.9689 18.8491 32.7464L18.1148 32.551C18.0385 32.8386 17.9999 33.135 18 33.4326V35.8618C18 36.5446 18.4938 37.1143 19.143 37.2324V42.7756H24.4621V37.2549H24.5722C25.3404 37.2549 25.9653 36.63 25.9653 35.8618V33.4325C25.9653 31.9364 24.9991 30.6626 23.6582 30.1998ZM21.9767 29.965C20.7613 29.965 19.7726 28.9763 19.7726 27.761C19.7726 26.5457 20.7614 25.557 21.9767 25.557C23.192 25.557 24.1807 26.5457 24.1807 27.761C24.1807 28.9763 23.192 29.965 21.9767 29.965Z"
                                        fill="#8530D1" />
                                    <path
                                        d="M21.4226 34.0364H22.1825V34.7994H21.4226V34.0364ZM21.4226 32.5198H22.1825V33.2797H21.4226V32.5198ZM30.538 30.2402H31.2978V31H30.538V30.2402ZM30.538 31.7599H31.2978V32.5198H30.538V31.7599ZM39.6314 27.2039H40.3913V27.9637H39.6314V27.2039ZM39.6314 28.7236H40.3913V29.4835H39.6314V28.7236ZM39.6314 30.2434H40.3913V31.0001H39.6314V30.2434Z"
                                        fill="#8530D1" />
                                </g>
                                <defs>
                                    <clipPath id="clip0_12_4518">
                                        <rect width="26" height="26" fill="white" transform="translate(18 18)" />
                                    </clipPath>
                                </defs>
                            </svg>