<svg width="48" height="48" viewBox="0 0 48 48" fill="none" xmlns="http://www.w3.org/2000/svg">
                        <rect width="48" height="48" rx="24" fill="#400179" />
                        <path
                            d="M34.125 19.875H13.875C13.5766 19.875 13.2905 19.7565 13.0795 19.5455C12.8685 19.3345 12.75 19.0484 12.75 18.75C12.75 18.4516 12.8685 18.1655 13.0795 17.9545C13.2905 17.7435 13.5766 17.625 13.875 17.625H34.125C34.4234 17.625 34.7095 17.7435 34.9205 17.9545C35.1315 18.1655 35.25 18.4516 35.25 18.75C35.25 19.0484 35.1315 19.3345 34.9205 19.5455C34.7095 19.7565 34.4234 19.875 34.125 19.875ZM30.375 25.125H17.625C17.3266 25.125 17.0405 25.0065 16.8295 24.7955C16.6185 24.5845 16.5 24.2984 16.5 24C16.5 23.7016 16.6185 23.4155 16.8295 23.2045C17.0405 22.9935 17.3266 22.875 17.625 22.875H30.375C30.6734 22.875 30.9595 22.9935 31.1705 23.2045C31.3815 23.4155 31.5 23.7016 31.5 24C31.5 24.2984 31.3815 24.5845 31.1705 24.7955C30.9595 25.0065 30.6734 25.125 30.375 25.125ZM25.875 30.375H22.125C21.8266 30.375 21.5405 30.2565 21.3295 30.0455C21.1185 29.8345 21 29.5484 21 29.25C21 28.9516 21.1185 28.6655 21.3295 28.4545C21.5405 28.2435 21.8266 28.125 22.125 28.125H25.875C26.1734 28.125 26.4595 28.2435 26.6705 28.4545C26.8815 28.6655 27 28.9516 27 29.25C27 29.5484 26.8815 29.8345 26.6705 30.0455C26.4595 30.2565 26.1734 30.375 25.875 30.375Z"
                            fill="white" />
                    </svg>