<svg xmlns="http://www.w3.org/2000/svg" width="24" height="24" viewBox="0 0 24 24" fill="none">
                                <g clip-path="url(#clip0_12_4411)">
                                    <path
                                        d="M23.5933 19.5256C23.5933 21.9987 18.3136 23.9999 11.7973 23.9999C5.28094 23.9999 0.0012207 21.9987 0.0012207 19.5256C0.0012207 18.293 1.31107 17.1745 3.43848 16.365C3.76042 16.8334 4.12241 17.2731 4.52039 17.6789C4.5936 17.7562 4.66686 17.8294 4.74411 17.8984C4.89059 18.0449 5.0411 18.1791 5.19563 18.3093C5.2037 18.3176 5.20773 18.3256 5.21598 18.3297C5.3542 18.4478 5.49243 18.5616 5.63891 18.6673C5.67223 18.6956 5.70758 18.7215 5.74475 18.7445C5.89122 18.8584 6.04173 18.9643 6.19627 19.0659C6.21839 19.0811 6.2415 19.0946 6.26526 19.1065C6.38741 19.192 6.50933 19.2653 6.63551 19.3385C6.73713 19.4035 6.84297 19.4604 6.94876 19.5174C7.09107 19.5989 7.2375 19.6719 7.388 19.7411C7.50593 19.8021 7.63211 19.855 7.75408 19.912C7.94115 19.9933 8.13234 20.0665 8.32363 20.1357C8.42928 20.1723 8.53108 20.2089 8.63673 20.2415C8.78321 20.2902 8.92969 20.3351 9.0802 20.3757C9.08882 20.3809 9.09848 20.3836 9.1086 20.3838C9.11188 20.3869 9.11629 20.3884 9.12083 20.3878C9.21842 20.4164 9.32004 20.4407 9.42185 20.461C9.42526 20.465 9.42976 20.468 9.43481 20.4694C9.43986 20.4709 9.44523 20.4708 9.45025 20.4693C9.55195 20.4981 9.65519 20.5211 9.75947 20.5383C9.79777 20.5504 9.83728 20.5586 9.8774 20.5628C9.98727 20.5832 10.0971 20.6035 10.211 20.6198C10.5235 20.6715 10.8385 20.7067 11.1547 20.7254C11.2156 20.7295 11.2766 20.7337 11.3335 20.7337C11.6425 20.7498 11.952 20.7498 12.2609 20.7337C12.3179 20.7337 12.3788 20.7295 12.44 20.7254C12.7562 20.7067 13.0712 20.6715 13.3837 20.6198C13.4976 20.6035 13.6074 20.5832 13.7171 20.5628C13.7572 20.5586 13.7967 20.5504 13.8352 20.5383C13.9394 20.5211 14.0426 20.4981 14.1443 20.4693C14.1545 20.4724 14.1657 20.4693 14.1728 20.461C14.2741 20.441 14.3745 20.4166 14.4736 20.3878C14.4758 20.3881 14.4781 20.3879 14.4802 20.3872C14.4823 20.3865 14.4843 20.3853 14.4859 20.3838C14.496 20.3836 14.5057 20.3808 14.5145 20.3757C14.665 20.3351 14.8113 20.2902 14.9578 20.2415C15.0636 20.2089 15.1652 20.1723 15.271 20.1357C15.4622 20.0665 15.6533 19.9932 15.8405 19.9119C15.9624 19.855 16.0886 19.8021 16.2065 19.7411C16.357 19.6719 16.5034 19.5989 16.6459 19.5174C16.7515 19.4605 16.8574 19.4035 16.959 19.3385C17.0851 19.2653 17.2071 19.192 17.3292 19.1065C17.3532 19.0945 17.3763 19.081 17.3984 19.0659C17.553 18.9643 17.7035 18.8584 17.8498 18.7445C17.8869 18.7215 17.9223 18.6956 17.9556 18.6673C18.1021 18.5616 18.2403 18.4477 18.3785 18.3297C18.3868 18.3256 18.3908 18.3176 18.3991 18.3093C18.5536 18.1791 18.7041 18.0449 18.8504 17.8984C18.9278 17.8294 19.0009 17.7562 19.0741 17.6789C19.4721 17.273 19.8342 16.8334 20.1562 16.365C22.2834 17.1745 23.5933 18.293 23.5933 19.5257V19.5256Z"
                                        fill="#71C285" />
                                    <path
                                        d="M20.7461 19.5258C20.7461 17.9532 16.7395 16.6785 11.7974 16.6785C6.85511 16.6785 2.84863 17.9532 2.84863 19.5258C2.84863 21.0982 6.85511 22.3731 11.7974 22.3731C16.7395 22.3731 20.7461 21.0982 20.7461 19.5258Z"
                                        fill="#4C8056" />
                                    <path
                                        d="M21.5432 13.4771C21.5106 13.583 21.4782 13.6886 21.4416 13.7945C21.3765 14.006 21.2991 14.2134 21.2138 14.4168C21.1732 14.5184 21.1283 14.616 21.0836 14.7178C21.0399 14.8179 20.9938 14.9169 20.9454 15.0148C20.8722 15.1734 20.7907 15.3279 20.7054 15.4824C20.6524 15.5802 20.5955 15.6778 20.5386 15.7754C20.4206 15.9746 20.2945 16.174 20.1563 16.3651C19.8342 16.8335 19.4721 17.2731 19.0742 17.679C19.0009 17.7522 18.9279 17.8255 18.8504 17.8985H15.8649L13.8311 14.2377L15.8649 10.5769H19.9325L21.5432 13.4771Z"
                                        fill="white" />
                                    <path
                                        d="M18.8504 17.8984C18.7041 18.0409 18.5536 18.1792 18.3991 18.3093C18.3908 18.3176 18.3868 18.3256 18.3786 18.3297C18.2403 18.4478 18.1021 18.5616 17.9556 18.6673C17.9223 18.6956 17.887 18.7215 17.8498 18.7445C17.7035 18.8584 17.553 18.9643 17.3984 19.0659C17.3763 19.0811 17.353 19.0946 17.3292 19.1065C17.2102 19.1906 17.0866 19.2681 16.959 19.3385C16.8574 19.4035 16.7516 19.4604 16.6459 19.5174C16.4994 19.5947 16.353 19.6719 16.2065 19.7411C16.0846 19.8021 15.9666 19.855 15.8405 19.912C15.6533 19.9933 15.4622 20.0665 15.2711 20.1357C15.1692 20.1763 15.0636 20.2089 14.9578 20.2415C14.8114 20.2905 14.6635 20.3353 14.5145 20.3757C14.5057 20.3809 14.496 20.3836 14.4859 20.3838L15.8648 17.8984H18.8504ZM9.10863 20.3838C9.09862 20.3836 9.08882 20.3809 9.08022 20.3757C8.93117 20.3353 8.7833 20.2905 8.63681 20.2415C8.53111 20.2089 8.42527 20.1764 8.3237 20.1357C8.13232 20.0665 7.94122 19.9932 7.75406 19.9119C7.62811 19.855 7.50999 19.8021 7.38803 19.7411C7.24156 19.6719 7.09508 19.5947 6.94884 19.5174C6.843 19.4605 6.73716 19.4035 6.63554 19.3385C6.50801 19.2679 6.38441 19.1905 6.26529 19.1065C6.24153 19.0946 6.21842 19.0811 6.1963 19.0659C6.04176 18.9643 5.89125 18.8584 5.74478 18.7445C5.70761 18.7215 5.67223 18.6956 5.63894 18.6673C5.49246 18.5616 5.35423 18.4477 5.21601 18.3297C5.20776 18.3256 5.20373 18.3176 5.19566 18.3093C5.04113 18.1792 4.89062 18.0409 4.74414 17.8984H7.72973L9.10863 20.3838Z"
                                        fill="#35495E" />
                                    <path
                                        d="M9.76344 14.2377L7.72964 17.8985H4.74405C4.6668 17.8255 4.59359 17.7523 4.52033 17.679C4.12236 17.2732 3.76036 16.8336 3.43842 16.3651C3.3 16.174 3.17405 15.9746 3.05594 15.7754C2.99899 15.6778 2.94204 15.5802 2.88912 15.4824C2.80381 15.3279 2.72248 15.1734 2.64927 15.0148C2.60075 14.9169 2.5546 14.8179 2.51085 14.7178C2.46619 14.616 2.42147 14.5184 2.38083 14.4168C2.29533 14.2134 2.21809 14.006 2.15289 13.7945C2.11647 13.6886 2.08385 13.583 2.05127 13.4771L3.66195 10.5769H7.72964L9.76344 14.2377Z"
                                        fill="white" />
                                    <path
                                        d="M3.66205 10.5768L2.05137 13.477C1.48743 11.5847 1.48743 9.56907 2.05137 7.67676L3.66205 10.5768Z"
                                        fill="#35495E" />
                                    <path
                                        d="M9.76344 6.91592L7.72964 10.5768H3.66195L2.05127 7.67675C2.54909 5.99378 3.47724 4.46975 4.7441 3.25513H7.72964L9.76344 6.91592Z"
                                        fill="white" />
                                    <path
                                        d="M15.8648 10.5768L13.831 14.2376H9.76354L7.72974 10.5768L9.76354 6.91602H13.831L15.8648 10.5768Z"
                                        fill="#35495E" />
                                    <path
                                        d="M15.8648 17.8984L14.4859 20.3838C14.4843 20.3853 14.4824 20.3865 14.4803 20.3872C14.4781 20.3879 14.4759 20.3881 14.4737 20.3878C14.3744 20.4161 14.274 20.4405 14.1728 20.461C14.1694 20.465 14.1649 20.4679 14.1598 20.4694C14.1547 20.4708 14.1493 20.4708 14.1443 20.4693C14.0427 20.4977 13.9409 20.518 13.8352 20.5383C13.7968 20.5504 13.7572 20.5586 13.7171 20.5628C13.6075 20.5872 13.4936 20.6034 13.3837 20.6198C13.0712 20.6714 12.7562 20.7067 12.44 20.7254C12.3831 20.7294 12.3219 20.7337 12.261 20.7337C11.9521 20.7498 11.6425 20.7498 11.3336 20.7337C11.2726 20.7337 11.2117 20.7294 11.1547 20.7254C10.8385 20.7067 10.5235 20.6714 10.211 20.6198C10.1012 20.6034 9.9873 20.5872 9.87744 20.5628C9.83731 20.5586 9.79775 20.5504 9.7595 20.5383C9.65367 20.518 9.55205 20.4977 9.45029 20.4693C9.44526 20.4708 9.43989 20.4709 9.43485 20.4694C9.4298 20.4679 9.42529 20.465 9.42188 20.461C9.32063 20.4405 9.22022 20.4161 9.12087 20.3878C9.11866 20.3881 9.11641 20.3878 9.1143 20.3871C9.11218 20.3864 9.11025 20.3853 9.10863 20.3838L7.72974 17.8984L9.76354 14.2376H13.831L15.8648 17.8984ZM21.5432 7.67671L19.9325 10.5768H15.8649L13.831 6.91597L15.8648 3.25513H18.8504C20.1172 4.46974 21.0454 5.99375 21.5432 7.67671Z"
                                        fill="white" />
                                    <path
                                        d="M18.8504 3.2552H15.8648L14.4859 0.77002C16.1276 1.21584 17.6292 2.07091 18.8504 3.2552ZM9.10863 0.77002L7.72973 3.2552H4.74414C5.96532 2.07094 7.467 1.21587 9.10863 0.77002Z"
                                        fill="#35495E" />
                                    <path
                                        d="M15.8648 3.25526L13.831 6.91601H9.76354L7.72974 3.25526L9.10859 0.77008C10.8685 0.287252 12.726 0.287252 14.4859 0.77008L15.8648 3.25526Z"
                                        fill="white" />
                                    <path
                                        d="M21.9662 10.5768C21.9678 11.559 21.8252 12.5361 21.5431 13.477L19.9324 10.5768L21.5431 7.67676C21.8252 8.61754 21.9677 9.5946 21.9662 10.5768Z"
                                        fill="#35495E" />
                                    <path
                                        d="M22.365 10.1783V10.1344C22.3609 10.0404 22.3563 9.94649 22.349 9.86155C22.3404 9.71212 22.3279 9.56218 22.3084 9.39044C22.2921 9.24724 22.2751 9.10133 22.2527 8.96985C22.2308 8.81644 22.2042 8.65876 22.1712 8.51833C22.1104 8.19668 22.0318 7.87865 21.9358 7.56569L21.9338 7.55838C21.8996 7.44813 21.8658 7.33831 21.8322 7.24072C21.7634 7.01885 21.6835 6.80056 21.5928 6.58666C21.5582 6.50117 21.5216 6.41825 21.4847 6.33402L21.4574 6.27304C21.4099 6.16523 21.3627 6.06193 21.3158 5.96931C21.2386 5.80197 21.1532 5.639 21.0641 5.47785C21.0074 5.3742 20.949 5.27153 20.8889 5.1699C20.7737 4.97912 20.6549 4.78793 20.5296 4.6085C20.4454 4.48659 20.3608 4.36739 20.2732 4.25147C19.998 3.87889 19.6966 3.52641 19.3712 3.1967C19.2899 3.11102 19.2084 3.02956 19.1361 2.96529C18.9889 2.82172 18.8371 2.68054 18.6819 2.55038C18.6697 2.53856 18.657 2.52721 18.6439 2.51635C18.4955 2.38923 18.3429 2.26709 18.1864 2.15013C18.1528 2.12291 18.1178 2.09755 18.0815 2.07415C17.9339 1.96083 17.7821 1.85311 17.6263 1.7512C17.5991 1.73235 17.5708 1.7151 17.5415 1.69955C17.4251 1.61775 17.3042 1.54237 17.1796 1.47376C17.0733 1.40547 16.9624 1.34524 16.8258 1.27034C16.6777 1.19239 16.5299 1.11453 16.3897 1.04825C16.2734 0.990038 16.1603 0.938947 16.0041 0.868122C15.8089 0.783517 15.6095 0.707349 15.4237 0.640322C15.3115 0.59509 15.195 0.559045 15.0881 0.526421C14.9431 0.477845 14.7969 0.433221 14.6495 0.3926C14.6261 0.3838 14.6021 0.376888 14.5776 0.37193C14.4734 0.342962 14.3741 0.317698 14.2696 0.297027L14.2542 0.293746C14.1552 0.265885 14.0547 0.2432 13.9532 0.225781C13.8983 0.208949 13.8421 0.19672 13.7851 0.189221C13.6755 0.166119 13.5649 0.147417 13.4538 0.133161C13.1274 0.0789482 12.7983 0.0419615 12.4681 0.0223544C12.4022 0.0179483 12.331 0.0139173 12.2949 0.0146673C12.1861 0.00566774 12.0821 0.00566774 12.0007 0.00604272C11.8749 -0.00201424 11.7487 -0.00201424 11.6229 0.00604272C11.5138 0.00604272 11.4089 0.00604272 11.334 0.0142923C11.2637 0.0142923 11.1924 0.0186514 11.1308 0.0232449C10.7953 0.0428497 10.4611 0.0801968 10.1296 0.13513C10.025 0.150504 9.91736 0.166815 9.81227 0.189127C9.76817 0.19372 9.72462 0.20272 9.6823 0.216032C9.56549 0.23839 9.45286 0.261639 9.34045 0.292949L9.32635 0.296605C9.22789 0.316699 9.13018 0.340275 9.03339 0.367289C9.01075 0.37178 8.98856 0.378338 8.96711 0.386882C8.81131 0.42752 8.65968 0.475143 8.51962 0.522719C8.40263 0.558435 8.2862 0.594715 8.18692 0.634978C7.98809 0.706928 7.78869 0.783095 7.55653 0.88434C7.43734 0.938384 7.32419 0.989616 7.21563 1.04418C7.06751 1.11416 6.91991 1.19178 6.74545 1.28369C6.63521 1.34355 6.52407 1.4058 6.44111 1.45783C6.30871 1.53121 6.18014 1.61131 6.05591 1.69781C6.02807 1.71286 6.00079 1.72936 5.97459 1.74708C5.81758 1.84969 5.66452 1.95823 5.51575 2.07246C5.47638 2.09824 5.43832 2.12609 5.40185 2.15576C5.24698 2.2682 5.09957 2.38885 4.9544 2.51372C4.94175 2.52469 4.92928 2.53571 4.91775 2.54724C4.74057 2.69681 4.59442 2.83194 4.46684 2.95845C4.38533 3.03443 4.31061 3.11041 4.23336 3.18789C3.90652 3.51853 3.60353 3.87193 3.32666 4.24543C3.23868 4.36239 3.15335 4.48132 3.07074 4.60213C2.94343 4.78427 2.82466 4.97542 2.70466 5.17154C2.64639 5.27105 2.58933 5.37127 2.53349 5.47218C2.44302 5.63478 2.35771 5.79756 2.2852 5.95496C2.2336 6.05827 2.18654 6.16153 2.13896 6.26938L2.11163 6.33032C2.07465 6.4146 2.03804 6.49751 2.00579 6.57734C1.91791 6.7829 1.84096 6.99296 1.77528 7.20665C1.73123 7.32006 1.6937 7.4359 1.66288 7.5536L1.66053 7.56204C1.56587 7.87077 1.48816 8.18446 1.42776 8.50169C1.39242 8.6551 1.36608 8.81278 1.34649 8.95523C1.32689 9.09767 1.30585 9.24359 1.28625 9.40839C1.26886 9.55852 1.25626 9.70847 1.24763 9.8489C1.24027 9.94283 1.23591 10.0368 1.23188 10.1307V10.1746C1.22766 10.3085 1.22363 10.4386 1.22363 10.5732C1.22363 10.708 1.22766 10.8382 1.23188 10.972V11.0171C1.23624 11.1106 1.24032 11.2042 1.24763 11.2888C1.25621 11.438 1.26886 11.5882 1.28827 11.7598C1.30453 11.903 1.32178 12.049 1.3441 12.1804C1.36608 12.3337 1.39242 12.4915 1.42542 12.632C1.48602 12.9544 1.56437 13.2732 1.66011 13.587V13.5943C1.69433 13.7045 1.72807 13.8144 1.76173 13.912C1.83055 14.1339 1.91043 14.3521 2.00106 14.566C2.03546 14.6515 2.07207 14.7345 2.10924 14.8187L2.13638 14.8796C2.18396 14.9875 2.2312 15.0907 2.27789 15.1836C2.35532 15.3507 2.44068 15.5137 2.52983 15.6748C2.58583 15.7775 2.6437 15.8792 2.7034 15.9799C2.84294 16.2155 2.97437 16.4187 3.10088 16.5929C3.4347 17.0788 3.81005 17.5349 4.22272 17.956C4.30405 18.0417 4.38533 18.1232 4.45784 18.1875C4.60539 18.331 4.75684 18.4722 4.91264 18.6023C4.92436 18.6142 4.93702 18.6258 4.95 18.6364C5.09841 18.7635 5.25102 18.8856 5.40757 19.0026C5.44103 19.0297 5.476 19.0551 5.51209 19.0786C5.65984 19.1919 5.8118 19.2996 5.96765 19.4015C5.9953 19.4204 6.02366 19.4378 6.05314 19.4535C6.16928 19.5353 6.28989 19.6106 6.41439 19.679C6.52042 19.7472 6.63155 19.8075 6.76814 19.8824C6.91625 19.9609 7.06437 20.0386 7.20391 20.1045C7.32053 20.1631 7.43406 20.2143 7.58986 20.285C7.78504 20.3696 7.98443 20.4458 8.17028 20.5128C8.28254 20.558 8.39897 20.5942 8.50589 20.6267C8.6508 20.6753 8.79704 20.72 8.94443 20.7605C8.96781 20.7694 8.99187 20.7764 9.01638 20.7814C9.12053 20.8101 9.2198 20.8354 9.32433 20.8561L9.33839 20.8597C9.43804 20.8874 9.5391 20.9099 9.6411 20.9269C9.69603 20.9438 9.75223 20.956 9.80918 20.9635C9.91408 20.9859 10.023 21.0042 10.1406 21.0196C10.4664 21.0737 10.7948 21.1107 11.1245 21.1304C11.1901 21.1347 11.2564 21.1367 11.31 21.1384C11.4728 21.1474 11.6354 21.1514 11.7954 21.1514C11.9552 21.1514 12.1207 21.1474 12.259 21.1393C12.3293 21.1393 12.4005 21.1347 12.4624 21.1304C12.7975 21.1102 13.1311 21.0727 13.4621 21.0175C13.5666 21.0022 13.6745 20.9859 13.7794 20.9635C13.8232 20.959 13.8664 20.95 13.9085 20.9366C14.0251 20.9143 14.1377 20.891 14.2502 20.8598L14.2642 20.8561C14.3627 20.8361 14.4604 20.8125 14.5572 20.7854C14.5799 20.781 14.6021 20.7744 14.6235 20.7658C14.7793 20.7252 14.9311 20.6776 15.071 20.63C15.1882 20.5942 15.3044 20.558 15.4037 20.5177C15.6025 20.4457 15.8019 20.3696 16.0333 20.2687C16.1529 20.2143 16.2664 20.1631 16.3746 20.1085C16.5225 20.0386 16.6707 19.9609 16.8452 19.869C16.9554 19.8091 17.0665 19.7469 17.1495 19.6949C17.2816 19.6217 17.4099 19.5417 17.5338 19.4552C17.5618 19.4401 17.589 19.4235 17.6153 19.4056C17.7723 19.3029 17.9255 19.1943 18.0745 19.0802C18.1138 19.0552 18.1517 19.028 18.188 18.9989C18.3429 18.8867 18.4901 18.7658 18.6353 18.641C18.648 18.63 18.6606 18.619 18.6719 18.6077C18.8242 18.4785 18.9718 18.3439 19.1145 18.2041C19.1198 18.1995 19.1243 18.1944 19.1291 18.1895L19.1324 18.1865C19.2103 18.1158 19.2855 18.0422 19.3578 17.9658C19.77 17.5455 20.145 17.0904 20.4787 16.6055C20.6109 16.4233 20.7424 16.2199 20.8832 15.9819C20.9415 15.8825 20.9986 15.7823 21.0544 15.6814C21.1446 15.5186 21.2301 15.3559 21.3025 15.1986C21.3541 15.0952 21.4014 14.9919 21.4489 14.884L21.4762 14.8231C21.5132 14.7388 21.5498 14.6559 21.5819 14.5763C21.6719 14.3647 21.751 14.1487 21.819 13.929C21.8572 13.8188 21.8911 13.7089 21.9248 13.6L21.9272 13.5914C22.022 13.2828 22.0997 12.9691 22.1599 12.6519C22.1952 12.4985 22.2218 12.3407 22.2412 12.1984C22.2608 12.0559 22.282 11.9098 22.3014 11.7452C22.319 11.5951 22.3316 11.445 22.3397 11.3047C22.3474 11.2112 22.3514 11.1176 22.356 11.024V10.9788C22.36 10.8449 22.364 10.7148 22.364 10.5802C22.364 10.4456 22.369 10.3121 22.365 10.1783ZM20.3978 10.5769L21.3924 8.78728C21.4123 8.88806 21.433 8.99057 21.4477 9.09636C21.4689 9.22399 21.4835 9.35547 21.5009 9.50556C21.5165 9.64018 21.5282 9.77531 21.5363 9.91921C21.5436 10.0031 21.5473 10.0867 21.5518 10.2039C21.5559 10.3301 21.5595 10.452 21.5595 10.5786C21.5595 10.7051 21.5559 10.8272 21.5509 10.9854C21.5475 11.0723 21.5425 11.1591 21.5359 11.2457C21.5276 11.3882 21.5152 11.5303 21.4986 11.672C21.4836 11.8002 21.4689 11.9314 21.4456 12.0702C21.4317 12.1654 21.412 12.2667 21.392 12.3679L20.3978 10.5769ZM19.6192 4.736C19.7014 4.84599 19.7815 4.95757 19.8593 5.07067C19.9765 5.23824 20.085 5.4133 20.1872 5.5828C20.242 5.67767 20.2969 5.77197 20.3498 5.86755C20.4311 6.01365 20.5073 6.15956 20.5822 6.32033C20.6281 6.41221 20.6701 6.50417 20.7118 6.59969L20.7394 6.66199C20.7729 6.73759 20.8063 6.81156 20.8396 6.89377C20.9217 7.0894 20.9945 7.28884 21.0576 7.4914C21.0734 7.53808 21.0876 7.58571 21.1027 7.63258L19.6929 10.1703H16.1045L15.0876 8.33988L14.2965 6.91613L15.0873 5.49257L16.1042 3.66215H18.6842C18.7172 3.69472 18.7497 3.72402 18.7847 3.76105C19.0856 4.06586 19.3645 4.39166 19.6193 4.736H19.6192ZM13.5916 13.8311H10.0031L8.98619 12.0007L8.19522 10.5769L8.98582 9.1534L10.0028 7.32294H13.5912L14.6082 9.15336L15.3997 10.5769L14.6089 12.0007L13.5916 13.8311ZM15.7023 1.62835C15.8116 1.67794 15.9158 1.72425 16.0304 1.78209C16.1685 1.8471 16.3055 1.91961 16.4629 2.00258C16.5552 2.05254 16.6488 2.10218 16.7615 2.17338C16.8761 2.23681 16.987 2.30649 17.0939 2.3821C17.11 2.39345 17.1552 2.42077 17.1731 2.42973C17.3189 2.52493 17.4608 2.62583 17.5986 2.7322C17.6153 2.74485 17.657 2.77672 17.6754 2.78676C17.6807 2.79079 17.71 2.81404 17.7162 2.81769C17.7299 2.82777 17.7426 2.84005 17.7568 2.85031H16.1046L15.3455 1.4807C15.4606 1.52467 15.5778 1.57135 15.7023 1.62835ZM9.56015 1.07619C9.65136 1.05055 9.74201 1.03316 9.87546 1.00513C9.88863 1.00091 9.90236 0.997819 9.9161 0.995803C9.9326 0.994162 9.94905 0.991584 9.96531 0.987928C10.058 0.967258 10.1541 0.953524 10.2784 0.935197C10.5776 0.885575 10.8791 0.851718 11.1818 0.833765C11.23 0.830671 11.2811 0.827015 11.3666 0.825328C11.4521 0.82364 11.5354 0.818765 11.6513 0.817641C11.6993 0.814734 11.7514 0.814734 11.7974 0.814734C11.8434 0.814734 11.8957 0.814734 11.9723 0.818765C12.0569 0.818765 12.1411 0.818765 12.261 0.827015C12.3126 0.827015 12.3639 0.830671 12.4141 0.834327C12.7267 0.853055 13.0382 0.888322 13.3471 0.939978C13.4398 0.953524 13.5359 0.967258 13.6285 0.987928C13.6449 0.991584 13.6614 0.994162 13.6778 0.995803C13.7053 1.0004 13.7324 1.00677 13.7591 1.01483C13.854 1.03316 13.9446 1.05055 14.0358 1.07619L14.0488 1.07947C14.0639 1.08463 14.0793 1.08866 14.0951 1.09175C14.1357 1.09981 14.1766 1.11172 14.2172 1.12142L15.3996 3.2552L15.071 3.8472L13.5916 6.50937H10.0031L8.5238 3.84659L8.19522 3.2552L9.37875 1.1218C9.41934 1.11209 9.46017 1.10019 9.50085 1.09213C9.51656 1.08913 9.53203 1.08503 9.54716 1.07985L9.56015 1.07619ZM5.93999 2.76468C5.95827 2.75465 5.9759 2.74326 5.99254 2.73046C6.13081 2.62312 6.27232 2.52357 6.44608 2.41079C6.4639 2.40194 6.48104 2.39177 6.49735 2.38037C6.61182 2.29975 6.73064 2.22549 6.85326 2.15791C6.94227 2.1004 7.03583 2.05081 7.14771 1.9902C7.28556 1.91788 7.42271 1.84537 7.56825 1.77632C7.67517 1.72251 7.77937 1.6762 7.9145 1.61358C8.02052 1.56765 8.13405 1.52659 8.24518 1.48375L7.49026 2.84853H5.83509C5.85337 2.83466 5.86968 2.82125 5.88871 2.80789L5.93999 2.76468ZM2.54192 7.47907C2.60051 7.28961 2.67045 7.09847 2.75801 6.8888C2.78894 6.8124 2.82222 6.73848 2.85555 6.66269L2.8832 6.6004C2.92384 6.50482 2.9671 6.41291 3.01833 6.31002C3.08789 6.16045 3.16425 6.0143 3.24646 5.86619C3.29774 5.77193 3.35268 5.67762 3.40428 5.58809C3.50956 5.41326 3.61835 5.23819 3.73736 5.06828C3.81484 4.95503 3.89462 4.84337 3.97664 4.73337C4.23083 4.39053 4.50878 4.06597 4.80844 3.76208C4.8405 3.73002 4.87711 3.69505 4.91044 3.6621H7.4903L8.50697 5.49247L9.29818 6.91608L8.50753 8.33984L7.49063 10.1702H3.90179L2.48952 7.62831C2.50457 7.582 2.52088 7.53363 2.54192 7.47907ZM2.20228 12.3667C2.18232 12.2658 2.16165 12.1632 2.14697 12.0576C2.12588 11.9298 2.11126 11.7985 2.09368 11.6484C2.07787 11.5109 2.06608 11.3729 2.05834 11.2347C2.0514 11.1533 2.04737 11.0676 2.04278 10.95C2.03875 10.8255 2.03509 10.7034 2.03509 10.5769C2.03509 10.4504 2.03875 10.3285 2.04371 10.1703C2.04737 10.086 2.05103 10.0022 2.05871 9.90918C2.0664 9.77437 2.07831 9.63943 2.09607 9.48273C2.11126 9.35477 2.12593 9.22324 2.14899 9.08445C2.16291 8.98944 2.18288 8.88806 2.20266 8.78677L3.19683 10.5769L2.20228 12.3667ZM3.7683 16.126C3.65111 15.9632 3.53281 15.7814 3.40761 15.5695C3.35208 15.4754 3.29781 15.3805 3.24482 15.2848C3.16355 15.1387 3.08733 14.9928 3.01266 14.8321C2.96673 14.7401 2.92478 14.6482 2.88283 14.5526L2.85517 14.4904C2.82189 14.4148 2.78857 14.3406 2.75505 14.2586C2.67288 14.063 2.60016 13.8635 2.53714 13.6609C2.5212 13.6143 2.50696 13.5666 2.49191 13.5198L3.90179 10.9837H7.49026L8.50701 12.8141L9.29813 14.2377L8.50753 15.6615L7.49063 17.4918H4.91006C4.87749 17.4593 4.8451 17.43 4.81083 17.3943C4.42735 17.0027 4.07854 16.5786 3.7683 16.1267V16.126ZM7.89252 19.5277C7.7834 19.4781 7.67939 19.4312 7.56333 19.3732C7.42543 19.3084 7.28847 19.2361 7.1314 19.1531C7.03911 19.1029 6.94555 19.0533 6.83296 18.9823C6.71858 18.9188 6.60776 18.8491 6.50101 18.7735C6.48376 18.7618 6.43984 18.7353 6.4195 18.7259C6.27396 18.6303 6.1324 18.5308 5.99418 18.4233C5.97824 18.4112 5.93395 18.3782 5.91637 18.368C5.91107 18.3643 5.88267 18.3416 5.87573 18.338C5.862 18.3277 5.84934 18.3156 5.83509 18.3054H7.48862L8.24753 19.6737C8.13658 19.6293 8.01687 19.5826 7.89252 19.5277ZM14.0345 20.0775C13.9435 20.1032 13.8526 20.1208 13.7194 20.1488C13.706 20.153 13.6924 20.1561 13.6786 20.1581C13.6621 20.1598 13.6456 20.1624 13.6295 20.1658C13.5367 20.1867 13.4407 20.2004 13.3162 20.2187C13.017 20.2683 12.7155 20.302 12.4128 20.3199C12.3648 20.3232 12.3135 20.327 12.2399 20.3273C11.9384 20.3438 11.6361 20.3438 11.3346 20.3273C11.2827 20.3273 11.2314 20.3236 11.1815 20.32C10.8688 20.3013 10.5574 20.266 10.2484 20.2143C10.1556 20.2007 10.0597 20.1871 9.967 20.1663C9.95077 20.1627 9.93433 20.1601 9.91778 20.1585C9.89022 20.1539 9.86298 20.1475 9.83623 20.1394C9.74159 20.1212 9.6508 20.1037 9.55977 20.0781L9.54679 20.0748C9.53157 20.0697 9.51604 20.0656 9.50029 20.0625C9.45965 20.0545 9.41901 20.0426 9.37833 20.0329L8.19517 17.8985L8.52384 17.3067L10.0031 14.6446H13.5916L15.071 17.3071L15.3996 17.8985L14.2159 20.0321C14.1753 20.0418 14.1346 20.0536 14.094 20.0618C14.0782 20.0647 14.0627 20.0688 14.0475 20.0739L14.0345 20.0775ZM17.6519 18.39C17.6339 18.3998 17.6171 18.4108 17.601 18.4232C17.4628 18.5308 17.3211 18.6304 17.1498 18.7415C17.1312 18.7509 17.113 18.7617 17.0958 18.7735C16.9815 18.8541 16.8628 18.9284 16.7403 18.996C16.6513 19.0533 16.5577 19.1029 16.4459 19.1632C16.3083 19.2361 16.1712 19.3084 16.0247 19.3776C15.9174 19.4312 15.8133 19.4781 15.679 19.5404C15.5729 19.5863 15.4593 19.6273 15.3484 19.67L16.1045 18.3054H17.7596C17.7413 18.3193 17.725 18.3326 17.7059 18.346L17.6519 18.39ZM21.0531 13.6749C20.9945 13.8644 20.9245 14.0555 20.8372 14.265C20.8063 14.3415 20.773 14.4155 20.7394 14.4911L20.7118 14.5534C20.6711 14.649 20.6281 14.7408 20.5768 14.844C20.5073 14.9935 20.4307 15.1396 20.3486 15.2876C20.2975 15.3821 20.2425 15.4764 20.1892 15.5683C20.0624 15.7823 19.9452 15.9648 19.823 16.135C19.5126 16.5858 19.1638 17.0089 18.7805 17.3996C18.7512 17.4303 18.7212 17.4609 18.6902 17.4919H16.1045L15.0876 15.6615L14.2965 14.2377L15.0873 12.8141L16.1042 10.9837H19.6925L21.1016 13.5203C21.0861 13.5714 21.0714 13.619 21.0527 13.6749H21.0531Z"
                                        fill="#2C3E50" />
                                </g>
                                <defs>
                                    <clipPath id="clip0_12_4411">
                                        <rect width="24" height="24" fill="white" />
                                    </clipPath>
                                </defs>
                            </svg>