<svg width="62" height="62" viewBox="0 0 62 62" fill="none" xmlns="http://www.w3.org/2000/svg">
                                <circle opacity="0.2" cx="31" cy="31" r="31" fill="white" />
                                <circle cx="31" cy="31" r="26" fill="white" />
                                <path
                                    d="M38.1754 19V20.4694H39.8329L36.5994 23.5354C35.4546 22.364 33.8584 21.6356 32.0951 21.6356C29.723 21.6356 27.6532 22.9533 26.5785 24.895C26.486 24.8909 26.3934 24.8887 26.3008 24.8886C22.8265 24.8886 20 27.7151 20 31.1894C20 34.4152 22.4367 37.0821 25.5661 37.4471V39.3998H23.3664V40.8692H25.5662V43H27.0356V40.8692H29.3314V39.3998H27.0356V37.4471C29.0956 37.2068 30.8553 35.969 31.8174 34.2307C31.9095 34.2347 32.002 34.2372 32.095 34.2372C35.5693 34.2372 38.3959 31.4107 38.3959 27.9364C38.3959 26.7558 38.0692 25.6501 37.5019 24.7046L41.0137 21.3747V23.1997H42.4831V19H38.1754ZM26.3009 36.0208C23.6368 36.0208 21.4695 33.8534 21.4695 31.1893C21.4695 28.6291 23.4713 26.528 25.9918 26.3681C25.8603 26.8805 25.7939 27.4074 25.7943 27.9364C25.7943 30.7706 27.6755 33.1735 30.2548 33.9627C29.3798 35.2065 27.9337 36.0208 26.3009 36.0208ZM30.9155 32.6219C28.8198 32.0941 27.2637 30.1937 27.2637 27.9364C27.2637 27.4378 27.3396 26.9567 27.4805 26.5038C29.5762 27.0317 31.1323 28.9321 31.1323 31.1894C31.1323 31.6879 31.0564 32.1691 30.9155 32.6219ZM32.4042 32.7576C32.5357 32.2452 32.6021 31.7183 32.6017 31.1893C32.6017 28.3551 30.7205 25.9522 28.1413 25.1629C29.0163 23.9193 30.4624 23.1049 32.0952 23.1049C34.7593 23.1049 36.9266 25.2723 36.9266 27.9363C36.9265 30.4966 34.9247 32.5977 32.4042 32.7576Z"
                                    fill="#400179" />
                            </svg>