<svg xmlns="http://www.w3.org/2000/svg" width="24" height="24" viewBox="0 0 24 24" fill="none">
                                <g clip-path="url(#clip0_12_4381)">
                                    <path
                                        d="M18.7151 7.74886C18.5806 7.74886 18.4437 7.72678 18.3094 7.68023C17.663 7.45622 17.3206 6.75056 17.5447 6.10411L18.4277 3.55655C18.5516 3.19903 18.3949 2.92163 18.3219 2.81897C18.2488 2.71627 18.0379 2.47744 17.6596 2.47744H13.1617C12.7834 2.47744 12.5725 2.71627 12.4994 2.81897C12.4263 2.92167 12.2697 3.19908 12.3936 3.55655L13.2766 6.10411C13.5006 6.75052 13.1582 7.45617 12.5118 7.68023C11.8654 7.9042 11.1597 7.56187 10.9357 6.91547L10.0527 4.36791C9.70474 3.36403 9.86487 2.24794 10.4809 1.38234C11.0971 0.51675 12.0992 0 13.1617 0H17.6596C18.722 0 19.7241 0.51675 20.3403 1.38234C20.9564 2.24794 21.1165 3.36403 20.7685 4.36791L19.8855 6.91547C19.7081 7.42758 19.2283 7.74886 18.7151 7.74886Z"
                                        fill="url(#paint0_linear_12_4381)" />
                                    <path
                                        d="M17.6595 0H15.2283V2.47748H17.6595C18.0378 2.47748 18.2487 2.71631 18.3218 2.81902C18.3949 2.92167 18.5515 3.19908 18.4276 3.55659L17.5446 6.10416C17.3206 6.75056 17.663 7.45622 18.3094 7.68028C18.4398 7.72565 18.577 7.74884 18.7151 7.74891C19.2282 7.74891 19.7079 7.42763 19.8854 6.91552L20.7684 4.36795C21.1164 3.36408 20.9563 2.24798 20.3402 1.38239C19.7241 0.51675 18.722 0 17.6595 0Z"
                                        fill="url(#paint1_linear_12_4381)" />
                                    <path
                                        d="M19.1973 2.34639C18.7241 1.61186 17.9543 1.17334 17.1381 1.17334H13.6831C12.8669 1.17334 12.0972 1.61186 11.6239 2.34639C11.1507 3.08092 11.0277 4.02803 11.2949 4.87989L11.9732 7.04171C12.068 7.34378 12.2752 7.56695 12.525 7.67532C13.1628 7.44625 13.4991 6.74612 13.2766 6.10417L12.3936 3.55661C12.2697 3.19914 12.4263 2.92173 12.4994 2.81903C12.5725 2.71632 12.7833 2.4775 13.1617 2.4775H17.6596C18.0379 2.4775 18.2488 2.71632 18.3219 2.81903C18.395 2.92168 18.5516 3.19909 18.4277 3.55661L17.5447 6.10417C17.3221 6.74631 17.6587 7.44671 18.2968 7.67556C18.5464 7.56709 18.7533 7.34359 18.8481 7.04171L19.5263 4.87989C19.7936 4.02803 19.6706 3.08092 19.1973 2.34639Z"
                                        fill="url(#paint2_linear_12_4381)" />
                                    <path
                                        d="M10.0527 4.36802L10.9356 6.91559C11.1597 7.56199 11.8653 7.90432 12.5118 7.68035C13.1582 7.45629 13.5006 6.75068 13.2765 6.10423L12.3935 3.55666C12.2696 3.1992 12.4263 2.92179 12.4993 2.81909C12.5724 2.71638 12.7833 2.47755 13.1616 2.47755H17.6595C18.0379 2.47755 18.2487 2.71638 18.3218 2.81909C18.3949 2.92174 18.5515 3.19915 18.4276 3.55666L17.5446 6.10423C17.3206 6.75063 17.663 7.45629 18.3094 7.68035C18.4399 7.72572 18.577 7.74892 18.7151 7.74898C19.2282 7.74898 19.708 7.42769 19.8855 6.91559L20.7685 4.36802C20.9971 3.7084 21.0063 3.0003 20.811 2.34668H10.0101C9.81481 3.0003 9.82404 3.7084 10.0527 4.36802Z"
                                        fill="url(#paint3_linear_12_4381)" />
                                    <path
                                        d="M13.874 18.3648H16.946C19.3406 18.3648 21.5008 16.8909 22.3377 14.6473C22.6447 13.8243 22.8093 12.9319 22.8012 12C22.7669 8.00359 19.5122 4.73045 15.516 4.67481C11.3859 4.61729 8.01978 7.94804 8.01978 12.0649C8.01978 13.0097 8.19706 13.9129 8.52012 14.7433C9.3747 16.9398 11.5171 18.3648 13.874 18.3648Z"
                                        fill="url(#paint4_linear_12_4381)" />
                                    <path
                                        d="M14.4453 11.4113L15.2905 12.5959C15.3234 12.6494 15.3399 12.6987 15.3399 12.7439C15.3399 12.8015 15.3223 12.8581 15.2874 12.9136C15.2524 12.9691 15.2072 13.0195 15.1517 13.0648C15.0962 13.1101 15.0365 13.1471 14.9728 13.1758C14.909 13.2045 14.8483 13.219 14.7908 13.219C14.6921 13.219 14.616 13.1799 14.5626 13.1018L13.816 11.9974L13.5014 12.2874V12.8612C13.5014 12.9352 13.4541 13.0031 13.3595 13.0648C13.2648 13.1265 13.1498 13.1574 13.0141 13.1574C12.8784 13.1574 12.7662 13.1265 12.6778 13.0648C12.5893 13.0031 12.5452 12.9352 12.5452 12.8612V8.83245C12.5452 8.74615 12.5893 8.67617 12.6778 8.62264C12.7662 8.56934 12.8783 8.54248 13.0141 8.54248C13.1498 8.54248 13.2648 8.56934 13.3595 8.62264C13.4541 8.67612 13.5014 8.74615 13.5014 8.83245V11.2509L14.5256 10.2576C14.5749 10.2083 14.6366 10.1836 14.7106 10.1836C14.764 10.1836 14.8176 10.1981 14.8711 10.2268C14.925 10.256 14.9748 10.2923 15.0191 10.3347C15.064 10.3776 15.1016 10.4276 15.1302 10.4828C15.1589 10.5383 15.1734 10.5908 15.1734 10.6402C15.1734 10.7018 15.1487 10.7574 15.0993 10.8067L14.4453 11.4113Z"
                                        fill="url(#paint5_linear_12_4381)" />
                                    <path
                                        d="M16.845 12.3245C16.7093 12.3245 16.586 12.3122 16.4749 12.2875C16.4584 12.3163 16.4502 12.343 16.4502 12.3677C16.4502 12.4253 16.4954 12.4654 16.5859 12.488C16.6763 12.5106 16.7895 12.5312 16.9252 12.5496C17.0609 12.5682 17.2069 12.5908 17.3632 12.6175C17.5195 12.6444 17.6656 12.6905 17.8013 12.7563C17.937 12.8222 18.05 12.9127 18.1406 13.0279C18.231 13.1429 18.2763 13.2971 18.2763 13.4905C18.2763 13.6715 18.2362 13.8256 18.156 13.9532C18.0758 14.0807 17.9699 14.1846 17.8383 14.2648C17.7066 14.345 17.5576 14.4035 17.391 14.4407C17.2239 14.4777 17.0532 14.4964 16.8821 14.4962C16.697 14.4962 16.52 14.4767 16.3515 14.4375C16.1828 14.3984 16.0337 14.3409 15.9042 14.2648C15.7745 14.1886 15.6707 14.0952 15.5926 13.9842C15.5144 13.8731 15.4753 13.7455 15.4753 13.6016C15.4753 13.4535 15.5144 13.3271 15.5926 13.2221C15.6707 13.1173 15.7694 13.0299 15.8887 12.9599C15.8187 12.9188 15.7643 12.8684 15.7252 12.8087C15.6861 12.7492 15.6666 12.672 15.6666 12.5775C15.6666 12.4623 15.6954 12.3677 15.753 12.2937C15.8105 12.2196 15.8866 12.1476 15.9812 12.0776C15.8537 11.9831 15.755 11.8689 15.6851 11.7352C15.6151 11.6015 15.5802 11.4545 15.5802 11.2941V11.2016C15.5802 11.0535 15.61 10.9168 15.6697 10.7913C15.7292 10.6658 15.8147 10.5579 15.9257 10.4674C16.0368 10.3769 16.1704 10.307 16.3268 10.2575C16.483 10.2083 16.6557 10.1835 16.845 10.1835C16.9766 10.1835 17.102 10.1969 17.2213 10.2237C17.3406 10.2504 17.4475 10.2864 17.5422 10.3316C17.6162 10.1548 17.6799 10.0386 17.7334 9.98305C17.7868 9.92755 17.8403 9.89966 17.8938 9.89966C18.0089 9.89966 18.0984 9.93266 18.1622 9.99842C18.2259 10.0642 18.2577 10.126 18.2577 10.1835C18.2577 10.2493 18.2248 10.311 18.159 10.3685C18.122 10.4015 18.0798 10.4355 18.0326 10.4704C17.9834 10.507 17.937 10.5472 17.8938 10.5907C18.05 10.7593 18.1282 10.9629 18.1282 11.2015V11.294C18.1282 11.442 18.0963 11.5789 18.0326 11.7043C17.9688 11.8298 17.8804 11.9388 17.7673 12.0313C17.6541 12.1238 17.5194 12.1958 17.3632 12.2472C17.207 12.2989 17.0342 12.3245 16.845 12.3245ZM17.351 13.5153C17.351 13.4453 17.3314 13.3878 17.2924 13.3425C17.2532 13.2972 17.1998 13.2613 17.132 13.2346C17.0641 13.2078 16.9859 13.1872 16.8975 13.1729C16.8062 13.1581 16.7147 13.1447 16.623 13.1328C16.5407 13.178 16.479 13.2324 16.4379 13.2962C16.3968 13.36 16.3762 13.4289 16.3762 13.5029C16.3762 13.6304 16.4266 13.7271 16.5274 13.793C16.6281 13.8587 16.7403 13.8917 16.8636 13.8917C16.9871 13.8917 17.0991 13.8587 17.1999 13.793C17.3006 13.727 17.351 13.6345 17.351 13.5153ZM17.2029 11.2017C17.2029 11.0743 17.173 10.9652 17.1134 10.8747C17.0538 10.7843 16.9663 10.739 16.8512 10.739C16.7401 10.739 16.6547 10.7843 16.5951 10.8747C16.5355 10.9652 16.5057 11.0743 16.5057 11.2017V11.288C16.5057 11.4238 16.5355 11.5379 16.5951 11.6305C16.6547 11.723 16.7421 11.7694 16.8574 11.7694C16.9643 11.7694 17.0486 11.7252 17.1103 11.6367C17.172 11.5482 17.2028 11.4342 17.2028 11.2942V11.2017H17.2029Z"
                                        fill="url(#paint6_linear_12_4381)" />
                                    <path
                                        d="M8.01978 12.0648C8.01978 13.0095 8.19706 13.9127 8.52012 14.7432C9.3747 16.9397 11.5171 18.3646 13.874 18.3646H16.946C19.3407 18.3646 21.5009 16.8908 22.3377 14.6472C22.6447 13.8242 22.8093 12.9317 22.8012 11.9999C22.7954 11.271 22.6806 10.547 22.4609 9.85205H8.35676C8.13781 10.5507 8.01978 11.2939 8.01978 12.0648Z"
                                        fill="url(#paint7_linear_12_4381)" />
                                    <path
                                        d="M15.516 4.67484C15.0178 4.66769 14.5201 4.71063 14.0305 4.80299V18.3648H16.9461C19.3407 18.3648 21.5009 16.8909 22.3378 14.6474C22.6448 13.8244 22.8093 12.9319 22.8013 12C22.7669 8.00362 19.5122 4.73048 15.516 4.67484Z"
                                        fill="url(#paint8_linear_12_4381)" />
                                    <path
                                        d="M22.2765 20.0419H1.72358C1.08477 20.0419 0.566895 19.524 0.566895 18.8852C0.566895 18.2464 1.08477 17.7285 1.72358 17.7285H22.2765C22.9153 17.7285 23.4332 18.2464 23.4332 18.8852C23.4332 19.524 22.9153 20.0419 22.2765 20.0419Z"
                                        fill="url(#paint9_linear_12_4381)" />
                                    <path
                                        d="M0.566895 18.885C0.566895 19.5238 1.08477 20.0417 1.72358 20.0417H22.2765C22.9153 20.0417 23.4332 19.5238 23.4332 18.885C23.4332 18.7093 23.3939 18.5429 23.3238 18.3938H0.676348C0.604099 18.5475 0.566722 18.7152 0.566895 18.885Z"
                                        fill="url(#paint10_linear_12_4381)" />
                                    <path
                                        d="M22.2766 17.7285H20.9126V20.0419H22.2766C22.9154 20.0419 23.4333 19.524 23.4333 18.8852C23.4333 18.2464 22.9155 17.7285 22.2766 17.7285Z"
                                        fill="url(#paint11_linear_12_4381)" />
                                    <path d="M6.9165 17.7285H12.364V20.0419H6.9165V17.7285Z"
                                        fill="url(#paint12_linear_12_4381)" />
                                    <path
                                        d="M3.93738 22.6542H3.28595C2.51856 22.6542 1.89648 22.0321 1.89648 21.2647V16.5057C1.89648 15.7383 2.51856 15.1162 3.28595 15.1162H3.93738C4.70477 15.1162 5.32684 15.7383 5.32684 16.5057V21.2647C5.32684 22.0321 4.70477 22.6542 3.93738 22.6542Z"
                                        fill="url(#paint13_linear_12_4381)" />
                                    <path
                                        d="M3.93738 22.6542H3.28595C2.51856 22.6542 1.89648 22.0321 1.89648 21.2647V16.5057C1.89648 15.7383 2.51856 15.1162 3.28595 15.1162H3.93738C4.70477 15.1162 5.32684 15.7383 5.32684 16.5057V21.2647C5.32684 22.0321 4.70477 22.6542 3.93738 22.6542Z"
                                        fill="url(#paint14_linear_12_4381)" />
                                    <path
                                        d="M1.89648 18.3938V21.2645C1.89648 22.0319 2.51856 22.654 3.28595 22.654H3.93738C4.70477 22.654 5.32684 22.0319 5.32684 21.2645V18.3938H1.89648Z"
                                        fill="url(#paint15_linear_12_4381)" />
                                    <path
                                        d="M6.75031 24.0001H6.03791C5.28739 24.0001 4.67896 23.3916 4.67896 22.6411V15.1292C4.67896 14.3787 5.28739 13.7703 6.03791 13.7703H6.75031C7.50083 13.7703 8.10927 14.3787 8.10927 15.1292V22.6411C8.10927 23.3916 7.50083 24.0001 6.75031 24.0001Z"
                                        fill="url(#paint16_linear_12_4381)" />
                                    <path
                                        d="M6.75035 13.7703H6.03794C5.9298 13.7703 5.82475 13.7832 5.72388 13.8072V23.9632C5.82678 23.9876 5.93217 24 6.03794 24.0001H6.75035C7.50086 24.0001 8.1093 23.3916 8.1093 22.6411V15.1292C8.1093 14.3787 7.50086 13.7703 6.75035 13.7703Z"
                                        fill="url(#paint17_linear_12_4381)" />
                                    <path
                                        d="M4.67896 20.0737V22.641C4.67896 23.3915 5.28739 23.9999 6.03791 23.9999H6.75031C7.50083 23.9999 8.10927 23.3915 8.10927 22.641V20.0737H4.67896Z"
                                        fill="url(#paint18_linear_12_4381)" />
                                    <path
                                        d="M20.7142 22.6542H20.0628C19.2954 22.6542 18.6733 22.0321 18.6733 21.2647V16.5057C18.6733 15.7383 19.2954 15.1162 20.0628 15.1162H20.7142C21.4816 15.1162 22.1037 15.7383 22.1037 16.5057V21.2647C22.1037 22.0321 21.4816 22.6542 20.7142 22.6542Z"
                                        fill="url(#paint19_linear_12_4381)" />
                                    <path
                                        d="M20.7142 22.6542H20.0628C19.2954 22.6542 18.6733 22.0321 18.6733 21.2647V16.5057C18.6733 15.7383 19.2954 15.1162 20.0628 15.1162H20.7142C21.4816 15.1162 22.1037 15.7383 22.1037 16.5057V21.2647C22.1037 22.0321 21.4816 22.6542 20.7142 22.6542Z"
                                        fill="url(#paint20_linear_12_4381)" />
                                    <path
                                        d="M20.7142 22.6542H20.0628C19.2954 22.6542 18.6733 22.0321 18.6733 21.2647V16.5057C18.6733 15.7383 19.2954 15.1162 20.0628 15.1162H20.7142C21.4816 15.1162 22.1037 15.7383 22.1037 16.5057V21.2647C22.1037 22.0321 21.4816 22.6542 20.7142 22.6542Z"
                                        fill="url(#paint21_linear_12_4381)" />
                                    <path
                                        d="M18.6733 18.3938V21.2645C18.6733 22.0319 19.2954 22.654 20.0628 22.654H20.7142C21.4816 22.654 22.1037 22.0319 22.1037 21.2645V18.3938H18.6733Z"
                                        fill="url(#paint22_linear_12_4381)" />
                                    <path
                                        d="M17.9622 24.0001H17.2498C16.4993 24.0001 15.8909 23.3916 15.8909 22.6411V15.1292C15.8909 14.3787 16.4993 13.7703 17.2498 13.7703H17.9622C18.7127 13.7703 19.3212 14.3787 19.3212 15.1292V22.6411C19.3212 23.3916 18.7127 24.0001 17.9622 24.0001Z"
                                        fill="url(#paint23_linear_12_4381)" />
                                    <path
                                        d="M17.9623 13.7703H17.2499C17.1417 13.7703 17.0367 13.7832 16.9358 13.8072V23.9632C17.0387 23.9876 17.1441 24 17.2499 24.0001H17.9623C18.7128 24.0001 19.3212 23.3916 19.3212 22.6411V15.1292C19.3212 14.3787 18.7128 13.7703 17.9623 13.7703Z"
                                        fill="url(#paint24_linear_12_4381)" />
                                    <path
                                        d="M15.8909 20.0737V22.641C15.8909 23.3915 16.4993 23.9999 17.2498 23.9999H17.9622C18.7127 23.9999 19.3212 23.3915 19.3212 22.641V20.0737H15.8909Z"
                                        fill="url(#paint25_linear_12_4381)" />
                                </g>
                                <defs>
                                    <linearGradient id="paint0_linear_12_4381" x1="14.0158" y1="0.3795" x2="16.7828"
                                        y2="6.67317" gradientUnits="userSpaceOnUse">
                                        <stop stop-color="#FE5694" />
                                        <stop offset="1" stop-color="#E41F2D" />
                                    </linearGradient>
                                    <linearGradient id="paint1_linear_12_4381" x1="18.8565" y1="4.0598" x2="20.4721"
                                        y2="4.68675" gradientUnits="userSpaceOnUse">
                                        <stop stop-color="#C41926" stop-opacity="0" />
                                        <stop offset="0.363" stop-color="#BF1C27" stop-opacity="0.363" />
                                        <stop offset="0.8" stop-color="#B12529" stop-opacity="0.8" />
                                        <stop offset="1" stop-color="#A72B2B" />
                                    </linearGradient>
                                    <linearGradient id="paint2_linear_12_4381" x1="15.4106" y1="3.12226" x2="15.4106"
                                        y2="0.855059" gradientUnits="userSpaceOnUse">
                                        <stop stop-color="#C41926" stop-opacity="0" />
                                        <stop offset="0.363" stop-color="#BF1C27" stop-opacity="0.363" />
                                        <stop offset="0.8" stop-color="#B12529" stop-opacity="0.8" />
                                        <stop offset="1" stop-color="#A72B2B" />
                                    </linearGradient>
                                    <linearGradient id="paint3_linear_12_4381" x1="15.4106" y1="4.01454" x2="15.4106"
                                        y2="6.23257" gradientUnits="userSpaceOnUse">
                                        <stop stop-color="#C41926" stop-opacity="0" />
                                        <stop offset="0.363" stop-color="#BF1C27" stop-opacity="0.363" />
                                        <stop offset="0.8" stop-color="#B12529" stop-opacity="0.8" />
                                        <stop offset="1" stop-color="#A72B2B" />
                                    </linearGradient>
                                    <linearGradient id="paint4_linear_12_4381" x1="11.6183" y1="8.17309" x2="18.8788"
                                        y2="15.4336" gradientUnits="userSpaceOnUse">
                                        <stop stop-color="#FE5694" />
                                        <stop offset="1" stop-color="#E41F2D" />
                                    </linearGradient>
                                    <linearGradient id="paint5_linear_12_4381" x1="11.7013" y1="9.52179" x2="19.4601"
                                        y2="17.2806" gradientUnits="userSpaceOnUse">
                                        <stop stop-color="#F5FBFF" />
                                        <stop offset="1" stop-color="#DBD5EF" />
                                    </linearGradient>
                                    <linearGradient id="paint6_linear_12_4381" x1="13.0499" y1="8.17325" x2="20.8087"
                                        y2="15.932" gradientUnits="userSpaceOnUse">
                                        <stop stop-color="#F5FBFF" />
                                        <stop offset="1" stop-color="#DBD5EF" />
                                    </linearGradient>
                                    <linearGradient id="paint7_linear_12_4381" x1="15.4106" y1="14.3771" x2="15.4106"
                                        y2="17.6938" gradientUnits="userSpaceOnUse">
                                        <stop stop-color="#C41926" stop-opacity="0" />
                                        <stop offset="0.363" stop-color="#BF1C27" stop-opacity="0.363" />
                                        <stop offset="0.8" stop-color="#B12529" stop-opacity="0.8" />
                                        <stop offset="1" stop-color="#A72B2B" />
                                    </linearGradient>
                                    <linearGradient id="paint8_linear_12_4381" x1="16.9999" y1="12.2465" x2="21.5573"
                                        y2="14.688" gradientUnits="userSpaceOnUse">
                                        <stop stop-color="#C41926" stop-opacity="0" />
                                        <stop offset="0.363" stop-color="#BF1C27" stop-opacity="0.363" />
                                        <stop offset="0.8" stop-color="#B12529" stop-opacity="0.8" />
                                        <stop offset="1" stop-color="#A72B2B" />
                                    </linearGradient>
                                    <linearGradient id="paint9_linear_12_4381" x1="12" y1="17.9278" x2="12" y2="20.0619"
                                        gradientUnits="userSpaceOnUse">
                                        <stop stop-color="#F5FBFF" />
                                        <stop offset="1" stop-color="#DBD5EF" />
                                    </linearGradient>
                                    <linearGradient id="paint10_linear_12_4381" x1="12.0001" y1="18.5425" x2="12.0001"
                                        y2="20.0325" gradientUnits="userSpaceOnUse">
                                        <stop stop-color="#DBD5EF" stop-opacity="0" />
                                        <stop offset="0.259" stop-color="#D9D2EC" stop-opacity="0.259" />
                                        <stop offset="0.429" stop-color="#D2CAE3" stop-opacity="0.43" />
                                        <stop offset="0.575" stop-color="#C6BCD4" stop-opacity="0.575" />
                                        <stop offset="0.707" stop-color="#B6A9BF" stop-opacity="0.707" />
                                        <stop offset="0.828" stop-color="#A08FA4" stop-opacity="0.828" />
                                        <stop offset="0.942" stop-color="#867082" stop-opacity="0.942" />
                                        <stop offset="1" stop-color="#765D6E" />
                                    </linearGradient>
                                    <linearGradient id="paint11_linear_12_4381" x1="23.5169" y1="18.8852" x2="21.9611"
                                        y2="18.8852" gradientUnits="userSpaceOnUse">
                                        <stop stop-color="#DBD5EF" stop-opacity="0" />
                                        <stop offset="0.259" stop-color="#D9D2EC" stop-opacity="0.259" />
                                        <stop offset="0.429" stop-color="#D2CAE3" stop-opacity="0.43" />
                                        <stop offset="0.575" stop-color="#C6BCD4" stop-opacity="0.575" />
                                        <stop offset="0.707" stop-color="#B6A9BF" stop-opacity="0.707" />
                                        <stop offset="0.828" stop-color="#A08FA4" stop-opacity="0.828" />
                                        <stop offset="0.942" stop-color="#867082" stop-opacity="0.942" />
                                        <stop offset="1" stop-color="#765D6E" />
                                    </linearGradient>
                                    <linearGradient id="paint12_linear_12_4381" x1="11.0018" y1="18.8852" x2="7.818"
                                        y2="18.8852" gradientUnits="userSpaceOnUse">
                                        <stop stop-color="#DBD5EF" stop-opacity="0" />
                                        <stop offset="0.259" stop-color="#D9D2EC" stop-opacity="0.259" />
                                        <stop offset="0.429" stop-color="#D2CAE3" stop-opacity="0.43" />
                                        <stop offset="0.575" stop-color="#C6BCD4" stop-opacity="0.575" />
                                        <stop offset="0.707" stop-color="#B6A9BF" stop-opacity="0.707" />
                                        <stop offset="0.828" stop-color="#A08FA4" stop-opacity="0.828" />
                                        <stop offset="0.942" stop-color="#867082" stop-opacity="0.942" />
                                        <stop offset="1" stop-color="#765D6E" />
                                    </linearGradient>
                                    <linearGradient id="paint13_linear_12_4381" x1="2.6688" y1="18.8709" x2="5.89164"
                                        y2="18.9197" gradientUnits="userSpaceOnUse">
                                        <stop stop-color="#5A5A5A" />
                                        <stop offset="1" stop-color="#444444" />
                                    </linearGradient>
                                    <linearGradient id="paint14_linear_12_4381" x1="2.95675" y1="18.8852" x2="4.8213"
                                        y2="18.8852" gradientUnits="userSpaceOnUse">
                                        <stop stop-color="#433F43" stop-opacity="0" />
                                        <stop offset="1" stop-color="#1A1A1A" />
                                    </linearGradient>
                                    <linearGradient id="paint15_linear_12_4381" x1="3.61169" y1="21.1106" x2="3.61169"
                                        y2="22.5815" gradientUnits="userSpaceOnUse">
                                        <stop stop-color="#433F43" stop-opacity="0" />
                                        <stop offset="1" stop-color="#1A1A1A" />
                                    </linearGradient>
                                    <linearGradient id="paint16_linear_12_4381" x1="5.2715" y1="18.8852" x2="8.54464"
                                        y2="18.8852" gradientUnits="userSpaceOnUse">
                                        <stop stop-color="#5A5A5A" />
                                        <stop offset="1" stop-color="#444444" />
                                    </linearGradient>
                                    <linearGradient id="paint17_linear_12_4381" x1="6.80899" y1="18.8852" x2="8.05033"
                                        y2="18.8852" gradientUnits="userSpaceOnUse">
                                        <stop stop-color="#433F43" stop-opacity="0" />
                                        <stop offset="1" stop-color="#1A1A1A" />
                                    </linearGradient>
                                    <linearGradient id="paint18_linear_12_4381" x1="6.39411" y1="22.1475" x2="6.39411"
                                        y2="23.9321" gradientUnits="userSpaceOnUse">
                                        <stop stop-color="#433F43" stop-opacity="0" />
                                        <stop offset="1" stop-color="#1A1A1A" />
                                    </linearGradient>
                                    <linearGradient id="paint19_linear_12_4381" x1="19.4457" y1="18.8709" x2="22.6685"
                                        y2="18.9197" gradientUnits="userSpaceOnUse">
                                        <stop stop-color="#5A5A5A" />
                                        <stop offset="1" stop-color="#444444" />
                                    </linearGradient>
                                    <linearGradient id="paint20_linear_12_4381" x1="19.7336" y1="18.8852" x2="21.5982"
                                        y2="18.8852" gradientUnits="userSpaceOnUse">
                                        <stop stop-color="#433F43" stop-opacity="0" />
                                        <stop offset="1" stop-color="#1A1A1A" />
                                    </linearGradient>
                                    <linearGradient id="paint21_linear_12_4381" x1="20.9098" y1="18.8852" x2="19.0998"
                                        y2="18.8852" gradientUnits="userSpaceOnUse">
                                        <stop stop-color="#433F43" stop-opacity="0" />
                                        <stop offset="1" stop-color="#1A1A1A" />
                                    </linearGradient>
                                    <linearGradient id="paint22_linear_12_4381" x1="20.3885" y1="21.1106" x2="20.3885"
                                        y2="22.5815" gradientUnits="userSpaceOnUse">
                                        <stop stop-color="#433F43" stop-opacity="0" />
                                        <stop offset="1" stop-color="#1A1A1A" />
                                    </linearGradient>
                                    <linearGradient id="paint23_linear_12_4381" x1="16.4834" y1="18.8852" x2="19.7566"
                                        y2="18.8852" gradientUnits="userSpaceOnUse">
                                        <stop stop-color="#5A5A5A" />
                                        <stop offset="1" stop-color="#444444" />
                                    </linearGradient>
                                    <linearGradient id="paint24_linear_12_4381" x1="18.0209" y1="18.8852" x2="19.2622"
                                        y2="18.8852" gradientUnits="userSpaceOnUse">
                                        <stop stop-color="#433F43" stop-opacity="0" />
                                        <stop offset="1" stop-color="#1A1A1A" />
                                    </linearGradient>
                                    <linearGradient id="paint25_linear_12_4381" x1="17.606" y1="22.1475" x2="17.606"
                                        y2="23.9321" gradientUnits="userSpaceOnUse">
                                        <stop stop-color="#433F43" stop-opacity="0" />
                                        <stop offset="1" stop-color="#1A1A1A" />
                                    </linearGradient>
                                    <clipPath id="clip0_12_4381">
                                        <rect width="24" height="24" fill="white" />
                                    </clipPath>
                                </defs>
                            </svg>