<svg width="62" height="62" viewBox="0 0 62 62" fill="none" xmlns="http://www.w3.org/2000/svg">
                                <circle opacity="0.2" cx="31" cy="31" r="31" fill="white" />
                                <circle cx="31" cy="31" r="26" fill="white" />
                                <path
                                    d="M34.6562 41.9688C34.5485 41.9688 34.4452 41.9259 34.369 41.8498C34.2928 41.7736 34.25 41.6702 34.25 41.5625V20.4375C34.25 20.3298 34.2928 20.2264 34.369 20.1502C34.4452 20.0741 34.5485 20.0312 34.6562 20.0312C34.764 20.0312 34.8673 20.0741 34.9435 20.1502C35.0197 20.2264 35.0625 20.3298 35.0625 20.4375V41.5625C35.0625 41.6702 35.0197 41.7736 34.9435 41.8498C34.8673 41.9259 34.764 41.9688 34.6562 41.9688Z"
                                    fill="#A25CE1" />
                                <path
                                    d="M36.2812 24.3647H34.6562C34.5485 24.3647 34.4452 24.3219 34.369 24.2457C34.2928 24.1695 34.25 24.0662 34.25 23.9585C34.25 23.8507 34.2928 23.7474 34.369 23.6712C34.4452 23.595 34.5485 23.5522 34.6562 23.5522H36.2812C36.389 23.5522 36.4923 23.595 36.5685 23.6712C36.6447 23.7474 36.6875 23.8507 36.6875 23.9585C36.6875 24.0662 36.6447 24.1695 36.5685 24.2457C36.4923 24.3219 36.389 24.3647 36.2812 24.3647ZM36.2812 22.604H34.6562C34.5485 22.604 34.4452 22.5612 34.369 22.485C34.2928 22.4089 34.25 22.3055 34.25 22.1978C34.25 22.09 34.2928 21.9867 34.369 21.9105C34.4452 21.8343 34.5485 21.7915 34.6562 21.7915H36.2812C36.389 21.7915 36.4923 21.8343 36.5685 21.9105C36.6447 21.9867 36.6875 22.09 36.6875 22.1978C36.6875 22.3055 36.6447 22.4089 36.5685 22.485C36.4923 22.5612 36.389 22.604 36.2812 22.604ZM36.2812 29.646H34.6562C34.5485 29.646 34.4452 29.6032 34.369 29.527C34.2928 29.4508 34.25 29.3475 34.25 29.2397C34.25 29.132 34.2928 29.0286 34.369 28.9525C34.4452 28.8763 34.5485 28.8335 34.6562 28.8335H36.2812C36.389 28.8335 36.4923 28.8763 36.5685 28.9525C36.6447 29.0286 36.6875 29.132 36.6875 29.2397C36.6875 29.3475 36.6447 29.4508 36.5685 29.527C36.4923 29.6032 36.389 29.646 36.2812 29.646ZM36.2812 27.8853H34.6562C34.5485 27.8853 34.4452 27.8425 34.369 27.7663C34.2928 27.6901 34.25 27.5868 34.25 27.479C34.25 27.3713 34.2928 27.268 34.369 27.1918C34.4452 27.1156 34.5485 27.0728 34.6562 27.0728H36.2812C36.389 27.0728 36.4923 27.1156 36.5685 27.1918C36.6447 27.268 36.6875 27.3713 36.6875 27.479C36.6875 27.5868 36.6447 27.6901 36.5685 27.7663C36.4923 27.8425 36.389 27.8853 36.2812 27.8853ZM36.2812 34.9272H34.6562C34.5485 34.9272 34.4452 34.8844 34.369 34.8082C34.2928 34.732 34.25 34.6287 34.25 34.521C34.25 34.4132 34.2928 34.3099 34.369 34.2337C34.4452 34.1575 34.5485 34.1147 34.6562 34.1147H36.2812C36.389 34.1147 36.4923 34.1575 36.5685 34.2337C36.6447 34.3099 36.6875 34.4132 36.6875 34.521C36.6875 34.6287 36.6447 34.732 36.5685 34.8082C36.4923 34.8844 36.389 34.9272 36.2812 34.9272ZM36.2812 33.1665H34.6562C34.5485 33.1665 34.4452 33.1237 34.369 33.0475C34.2928 32.9714 34.25 32.868 34.25 32.7603C34.25 32.6525 34.2928 32.5492 34.369 32.473C34.4452 32.3968 34.5485 32.354 34.6562 32.354H36.2812C36.389 32.354 36.4923 32.3968 36.5685 32.473C36.6447 32.5492 36.6875 32.6525 36.6875 32.7603C36.6875 32.868 36.6447 32.9714 36.5685 33.0475C36.4923 33.1237 36.389 33.1665 36.2812 33.1665ZM36.2812 40.2085H34.6562C34.5485 40.2085 34.4452 40.1657 34.369 40.0895C34.2928 40.0133 34.25 39.91 34.25 39.8022C34.25 39.6945 34.2928 39.5911 34.369 39.515C34.4452 39.4388 34.5485 39.396 34.6562 39.396H36.2812C36.389 39.396 36.4923 39.4388 36.5685 39.515C36.6447 39.5911 36.6875 39.6945 36.6875 39.8022C36.6875 39.91 36.6447 40.0133 36.5685 40.0895C36.4923 40.1657 36.389 40.2085 36.2812 40.2085ZM36.2812 38.4478H34.6562C34.5485 38.4478 34.4452 38.405 34.369 38.3288C34.2928 38.2526 34.25 38.1493 34.25 38.0415C34.25 37.9338 34.2928 37.8305 34.369 37.7543C34.4452 37.6781 34.5485 37.6353 34.6562 37.6353H36.2812C36.389 37.6353 36.4923 37.6781 36.5685 37.7543C36.6447 37.8305 36.6875 37.9338 36.6875 38.0415C36.6875 38.1493 36.6447 38.2526 36.5685 38.3288C36.4923 38.405 36.389 38.4478 36.2812 38.4478ZM37.9062 36.6875H34.6562C34.5485 36.6875 34.4452 36.6447 34.369 36.5685C34.2928 36.4923 34.25 36.389 34.25 36.2812C34.25 36.1735 34.2928 36.0702 34.369 35.994C34.4452 35.9178 34.5485 35.875 34.6562 35.875H37.9062C38.014 35.875 38.1173 35.9178 38.1935 35.994C38.2697 36.0702 38.3125 36.1735 38.3125 36.2812C38.3125 36.389 38.2697 36.4923 38.1935 36.5685C38.1173 36.6447 38.014 36.6875 37.9062 36.6875ZM37.9062 26.125H34.6562C34.5485 26.125 34.4452 26.0822 34.369 26.006C34.2928 25.9298 34.25 25.8265 34.25 25.7188C34.25 25.611 34.2928 25.5077 34.369 25.4315C34.4452 25.3553 34.5485 25.3125 34.6562 25.3125H37.9062C38.014 25.3125 38.1173 25.3553 38.1935 25.4315C38.2697 25.5077 38.3125 25.611 38.3125 25.7188C38.3125 25.8265 38.2697 25.9298 38.1935 26.006C38.1173 26.0822 38.014 26.125 37.9062 26.125ZM37.9062 31.4062H34.6562C34.5485 31.4062 34.4452 31.3634 34.369 31.2873C34.2928 31.2111 34.25 31.1077 34.25 31C34.25 30.8923 34.2928 30.7889 34.369 30.7127C34.4452 30.6366 34.5485 30.5938 34.6562 30.5938H37.9062C38.014 30.5938 38.1173 30.6366 38.1935 30.7127C38.2697 30.7889 38.3125 30.8923 38.3125 31C38.3125 31.1077 38.2697 31.2111 38.1935 31.2873C38.1173 31.3634 38.014 31.4062 37.9062 31.4062ZM37.9062 20.8438H34.6562C34.5485 20.8438 34.4452 20.8009 34.369 20.7248C34.2928 20.6486 34.25 20.5452 34.25 20.4375C34.25 20.3298 34.2928 20.2264 34.369 20.1502C34.4452 20.0741 34.5485 20.0312 34.6562 20.0312H37.9062C38.014 20.0312 38.1173 20.0741 38.1935 20.1502C38.2697 20.2264 38.3125 20.3298 38.3125 20.4375C38.3125 20.5452 38.2697 20.6486 38.1935 20.7248C38.1173 20.8009 38.014 20.8438 37.9062 20.8438ZM37.9062 41.9688H34.6562C34.5485 41.9688 34.4452 41.9259 34.369 41.8498C34.2928 41.7736 34.25 41.6702 34.25 41.5625C34.25 41.4548 34.2928 41.3514 34.369 41.2752C34.4452 41.1991 34.5485 41.1562 34.6562 41.1562H37.9062C38.014 41.1562 38.1173 41.1991 38.1935 41.2752C38.2697 41.3514 38.3125 41.4548 38.3125 41.5625C38.3125 41.6702 38.2697 41.7736 38.1935 41.8498C38.1173 41.9259 38.014 41.9688 37.9062 41.9688ZM32.2188 29.7812C32.111 29.7812 32.0077 29.7384 31.9315 29.6623C31.8553 29.5861 31.8125 29.4827 31.8125 29.375C31.8125 28.255 30.9013 27.3438 29.7812 27.3438C29.6735 27.3438 29.5702 27.3009 29.494 27.2248C29.4178 27.1486 29.375 27.0452 29.375 26.9375C29.375 26.8298 29.4178 26.7264 29.494 26.6502C29.5702 26.5741 29.6735 26.5312 29.7812 26.5312C31.3494 26.5312 32.625 27.8073 32.625 29.375C32.625 29.4827 32.5822 29.5861 32.506 29.6623C32.4298 29.7384 32.3265 29.7812 32.2188 29.7812Z"
                                    fill="#A25CE1" />
                                <path
                                    d="M32.2188 34.4986C32.111 34.4986 32.0077 34.4558 31.9315 34.3796C31.8553 34.3035 31.8125 34.2001 31.8125 34.0924V29.375C31.8125 29.2673 31.8553 29.1639 31.9315 29.0877C32.0077 29.0116 32.111 28.9688 32.2188 28.9688C32.3265 28.9688 32.4298 29.0116 32.506 29.0877C32.5822 29.1639 32.625 29.2673 32.625 29.375V34.0924C32.625 34.2001 32.5822 34.3035 32.506 34.3796C32.4298 34.4558 32.3265 34.4986 32.2188 34.4986ZM29.7812 27.3438H26.5312C26.4235 27.3438 26.3202 27.3009 26.244 27.2248C26.1678 27.1486 26.125 27.0452 26.125 26.9375C26.125 26.8298 26.1678 26.7264 26.244 26.6502C26.3202 26.5741 26.4235 26.5312 26.5312 26.5312H29.7812C29.889 26.5312 29.9923 26.5741 30.0685 26.6502C30.1447 26.7264 30.1875 26.8298 30.1875 26.9375C30.1875 27.0452 30.1447 27.1486 30.0685 27.2248C29.9923 27.3009 29.889 27.3438 29.7812 27.3438Z"
                                    fill="#A25CE1" />
                                <path
                                    d="M24.0938 29.7812C23.986 29.7812 23.8827 29.7384 23.8065 29.6623C23.7303 29.5861 23.6875 29.4827 23.6875 29.375C23.6875 27.8073 24.9631 26.5312 26.5312 26.5312C26.639 26.5312 26.7423 26.5741 26.8185 26.6502C26.8947 26.7264 26.9375 26.8298 26.9375 26.9375C26.9375 27.0452 26.8947 27.1486 26.8185 27.2248C26.7423 27.3009 26.639 27.3438 26.5312 27.3438C25.4112 27.3438 24.5 28.255 24.5 29.375C24.5 29.4827 24.4572 29.5861 24.381 29.6623C24.3048 29.7384 24.2015 29.7812 24.0938 29.7812Z"
                                    fill="#A25CE1" />
                                <path
                                    d="M24.0938 34.4986C23.986 34.4986 23.8827 34.4558 23.8065 34.3796C23.7303 34.3035 23.6875 34.2001 23.6875 34.0924V29.375C23.6875 29.2673 23.7303 29.1639 23.8065 29.0877C23.8827 29.0116 23.986 28.9688 24.0938 28.9688C24.2015 28.9688 24.3048 29.0116 24.381 29.0877C24.4572 29.1639 24.5 29.2673 24.5 29.375V34.0924C24.5 34.2001 24.4572 34.3035 24.381 34.3796C24.3048 34.4558 24.2015 34.4986 24.0938 34.4986ZM31.4062 35.2847C30.8005 35.2847 30.1875 34.8752 30.1875 34.0924C30.1875 33.9846 30.2303 33.8813 30.3065 33.8051C30.3827 33.7289 30.486 33.6861 30.5938 33.6861C30.7015 33.6861 30.8048 33.7289 30.881 33.8051C30.9572 33.8813 31 33.9846 31 34.0924C31 34.4539 31.3384 34.4722 31.4062 34.4722C31.4741 34.4722 31.8125 34.4539 31.8125 34.0924C31.8125 33.9846 31.8553 33.8813 31.9315 33.8051C32.0077 33.7289 32.111 33.6861 32.2188 33.6861C32.3265 33.6861 32.4298 33.7289 32.506 33.8051C32.5822 33.8813 32.625 33.9846 32.625 34.0924C32.625 34.8752 32.012 35.2847 31.4062 35.2847Z"
                                    fill="#A25CE1" />
                                <path
                                    d="M24.9062 35.2846C24.3005 35.2846 23.6875 34.8751 23.6875 34.0923C23.6875 33.9845 23.7303 33.8812 23.8065 33.805C23.8827 33.7288 23.986 33.686 24.0938 33.686C24.2015 33.686 24.3048 33.7288 24.381 33.805C24.4572 33.8812 24.5 33.9845 24.5 34.0923C24.5 34.4538 24.8384 34.4721 24.9062 34.4721C24.9741 34.4721 25.3125 34.4538 25.3125 34.0923C25.3125 33.9845 25.3553 33.8812 25.4315 33.805C25.5077 33.7288 25.611 33.686 25.7188 33.686C25.8265 33.686 25.9298 33.7288 26.006 33.805C26.0822 33.8812 26.125 33.9845 26.125 34.0923C26.125 34.8751 25.512 35.2846 24.9062 35.2846Z"
                                    fill="#A25CE1" />
                                <path
                                    d="M25.7188 34.6562C25.611 34.6562 25.5077 34.6134 25.4315 34.5373C25.3553 34.4611 25.3125 34.3577 25.3125 34.25V29.375C25.3125 29.2673 25.3553 29.1639 25.4315 29.0877C25.5077 29.0116 25.611 28.9688 25.7188 28.9688C25.8265 28.9688 25.9298 29.0116 26.006 29.0877C26.0822 29.1639 26.125 29.2673 26.125 29.375V34.25C26.125 34.3577 26.0822 34.4611 26.006 34.5373C25.9298 34.6134 25.8265 34.6562 25.7188 34.6562ZM30.5938 34.6562C30.486 34.6562 30.3827 34.6134 30.3065 34.5373C30.2303 34.4611 30.1875 34.3577 30.1875 34.25V29.375C30.1875 29.2673 30.2303 29.1639 30.3065 29.0877C30.3827 29.0116 30.486 28.9688 30.5938 28.9688C30.7015 28.9688 30.8048 29.0116 30.881 29.0877C30.9572 29.1639 31 29.2673 31 29.375V34.25C31 34.3577 30.9572 34.4611 30.881 34.5373C30.8048 34.6134 30.7015 34.6562 30.5938 34.6562Z"
                                    fill="#A25CE1" />
                                <path
                                    d="M25.7188 40.75C25.611 40.75 25.5077 40.7072 25.4315 40.631C25.3553 40.5548 25.3125 40.4515 25.3125 40.3438V34.25C25.3125 34.1423 25.3553 34.0389 25.4315 33.9627C25.5077 33.8866 25.611 33.8438 25.7188 33.8438C25.8265 33.8438 25.9298 33.8866 26.006 33.9627C26.0822 34.0389 26.125 34.1423 26.125 34.25V40.3438C26.125 40.4515 26.0822 40.5548 26.006 40.631C25.9298 40.7072 25.8265 40.75 25.7188 40.75ZM30.5938 40.75C30.486 40.75 30.3827 40.7072 30.3065 40.631C30.2303 40.5548 30.1875 40.4515 30.1875 40.3438V34.25C30.1875 34.1423 30.2303 34.0389 30.3065 33.9627C30.3827 33.8866 30.486 33.8438 30.5938 33.8438C30.7015 33.8438 30.8048 33.8866 30.881 33.9627C30.9572 34.0389 31 34.1423 31 34.25V40.3438C31 40.4515 30.9572 40.5548 30.881 40.631C30.8048 40.7072 30.7015 40.75 30.5938 40.75ZM28.1562 40.75C28.0485 40.75 27.9452 40.7072 27.869 40.631C27.7928 40.5548 27.75 40.4515 27.75 40.3438V34.25C27.75 34.1423 27.7928 34.0389 27.869 33.9627C27.9452 33.8866 28.0485 33.8438 28.1562 33.8438C28.264 33.8438 28.3673 33.8866 28.4435 33.9627C28.5197 34.0389 28.5625 34.1423 28.5625 34.25V40.3438C28.5625 40.4515 28.5197 40.5548 28.4435 40.631C28.3673 40.7072 28.264 40.75 28.1562 40.75Z"
                                    fill="#A25CE1" />
                                <path
                                    d="M29.375 41.9289C28.9586 41.9289 28.567 41.7892 28.2724 41.5357C27.9357 41.2464 27.75 40.8231 27.75 40.3438C27.75 40.236 27.7928 40.1327 27.869 40.0565C27.9452 39.9803 28.0485 39.9375 28.1562 39.9375C28.264 39.9375 28.3673 39.9803 28.4435 40.0565C28.5197 40.1327 28.5625 40.236 28.5625 40.3438C28.5625 40.9137 29 41.1164 29.375 41.1164C29.75 41.1164 30.1875 40.9137 30.1875 40.3438C30.1875 40.236 30.2303 40.1327 30.3065 40.0565C30.3827 39.9803 30.486 39.9375 30.5938 39.9375C30.7015 39.9375 30.8048 39.9803 30.881 40.0565C30.9572 40.1327 31 40.236 31 40.3438C31 41.3846 30.1826 41.9289 29.375 41.9289Z"
                                    fill="#A25CE1" />
                                <path
                                    d="M26.9375 41.9289C26.5211 41.9289 26.1295 41.7892 25.8349 41.5357C25.4982 41.2464 25.3125 40.8231 25.3125 40.3437C25.3125 40.236 25.3553 40.1327 25.4315 40.0565C25.5077 39.9803 25.611 39.9375 25.7188 39.9375C25.8265 39.9375 25.9298 39.9803 26.006 40.0565C26.0822 40.1327 26.125 40.236 26.125 40.3437C26.125 40.9137 26.5625 41.1164 26.9375 41.1164C27.3125 41.1164 27.75 40.9137 27.75 40.3437C27.75 40.236 27.7928 40.1327 27.869 40.0565C27.9452 39.9803 28.0485 39.9375 28.1562 39.9375C28.264 39.9375 28.3673 39.9803 28.4435 40.0565C28.5197 40.1327 28.5625 40.236 28.5625 40.3437C28.5625 41.3846 27.7451 41.9289 26.9375 41.9289ZM28.1562 25.7187C26.6149 25.7187 25.3125 24.4163 25.3125 22.875C25.3125 21.3337 26.6149 20.0312 28.1562 20.0312C29.6976 20.0312 31 21.3337 31 22.875C31 24.4163 29.6976 25.7187 28.1562 25.7187ZM28.1562 20.8437C27.0553 20.8437 26.125 21.7741 26.125 22.875C26.125 23.9759 27.0553 24.9062 28.1562 24.9062C29.2572 24.9062 30.1875 23.9759 30.1875 22.875C30.1875 21.7741 29.2572 20.8437 28.1562 20.8437Z"
                                    fill="#A25CE1" />
                            </svg>