<svg width="60" height="60" viewBox="0 0 60 60" fill="none" xmlns="http://www.w3.org/2000/svg">
                        <g clip-path="url(#clip0_12_3845)">
                            <path
                                d="M23.3333 27.9333H22.3667C21.0475 27.8856 19.7326 28.1096 18.5036 28.5912C17.2746 29.0729 16.1577 29.802 15.2222 30.7333L14.9556 31.0444V40.2444H19.4889V35.0222L20.1 34.3333L20.3778 34.0111C21.8244 32.525 23.6253 31.4314 25.6111 30.8333C24.6169 30.0768 23.8328 29.0784 23.3333 27.9333Z"
                                fill="#400179" />
                            <path
                                d="M44.8222 30.7001C43.8867 29.7688 42.7698 29.0397 41.5408 28.558C40.3118 28.0764 38.9969 27.8524 37.6778 27.9001C37.2732 27.9012 36.8689 27.9235 36.4667 27.9668C35.9579 29.0411 35.1952 29.9754 34.2444 30.689C36.3644 31.2755 38.2849 32.4277 39.8 34.0223L40.0778 34.3334L40.6778 35.0223V40.2556H45.0556V31.0112L44.8222 30.7001Z"
                                fill="#400179" />
                            <path
                                d="M22.3334 25.7666H22.6778C22.5178 24.3924 22.7589 23.0013 23.3721 21.7612C23.9852 20.521 24.9443 19.4848 26.1334 18.7777C25.7023 18.1192 25.1076 17.584 24.4076 17.2243C23.7075 16.8647 22.9261 16.6931 22.1397 16.7262C21.3534 16.7593 20.5891 16.9961 19.9218 17.4134C19.2545 17.8306 18.707 18.414 18.3329 19.1064C17.9588 19.7989 17.7709 20.5766 17.7877 21.3634C17.8044 22.1503 18.0253 22.9193 18.4285 23.5952C18.8318 24.271 19.4037 24.8306 20.0882 25.219C20.7727 25.6074 21.5463 25.8115 22.3334 25.8111V25.7666Z"
                                fill="#400179" />
                            <path
                                d="M37.1444 24.9333C37.1579 25.1887 37.1579 25.4446 37.1444 25.7C37.3576 25.7338 37.573 25.7524 37.7889 25.7555H38C38.7835 25.7138 39.5429 25.4698 40.2042 25.0474C40.8655 24.625 41.4062 24.0386 41.7736 23.3452C42.141 22.6519 42.3226 21.8752 42.3007 21.0908C42.2788 20.3064 42.0542 19.5411 41.6487 18.8693C41.2432 18.1975 40.6707 17.6421 39.9869 17.2572C39.3031 16.8724 38.5313 16.6711 37.7466 16.6731C36.9619 16.6751 36.1911 16.8802 35.5092 17.2685C34.8273 17.6568 34.2576 18.215 33.8555 18.8889C34.8612 19.5455 35.6881 20.4414 36.2621 21.4964C36.8361 22.5514 37.1393 23.7323 37.1444 24.9333Z"
                                fill="#400179" />
                            <path
                                d="M29.8556 29.9111C32.5986 29.9111 34.8223 27.6875 34.8223 24.9445C34.8223 22.2014 32.5986 19.9778 29.8556 19.9778C27.1126 19.9778 24.8889 22.2014 24.8889 24.9445C24.8889 27.6875 27.1126 29.9111 29.8556 29.9111Z"
                                fill="#400179" />
                            <path
                                d="M30.1222 32.5556C28.6712 32.497 27.2233 32.7326 25.8656 33.2482C24.508 33.7637 23.2686 34.5486 22.2222 35.5556L21.9445 35.8667V42.9001C21.9488 43.1292 21.9982 43.3552 22.0899 43.5651C22.1816 43.7751 22.3138 43.965 22.4789 44.1239C22.644 44.2828 22.8387 44.4076 23.0521 44.4912C23.2654 44.5748 23.4931 44.6156 23.7222 44.6112H36.4889C36.718 44.6156 36.9457 44.5748 37.1591 44.4912C37.3724 44.4076 37.5672 44.2828 37.7323 44.1239C37.8974 43.965 38.0295 43.7751 38.1212 43.5651C38.2129 43.3552 38.2623 43.1292 38.2667 42.9001V35.8889L38 35.5556C36.9604 34.5455 35.7254 33.7584 34.3708 33.2426C33.0161 32.7267 31.5704 32.4929 30.1222 32.5556Z"
                                fill="#400179" />
                        </g>
                        <circle opacity="0.1" cx="30" cy="30" r="30" fill="#400179" />
                        <defs>
                            <clipPath id="clip0_12_3845">
                                <rect width="40" height="40" fill="white" transform="translate(10 10)" />
                            </clipPath>
                        </defs>
                    </svg>