<svg xmlns="http://www.w3.org/2000/svg" width="24" height="24" viewBox="0 0 24 24" fill="none">
                                <path d="M16.125 22.875H3.375L1.875 10.875H17.625L16.125 22.875Z" fill="#E82F3E" />
                                <path d="M21.75 22.875H17.25L16.5 15.375H22.5L21.75 22.875Z" fill="#0296E5" />
                                <path d="M22.2051 18.323L21.9838 20.5341L16.9265 19.6416L16.6978 17.3513L22.2051 18.323Z"
                                    fill="#0296E5" />
                                <path d="M22.875 13.875H16.125L16.5 12.375H22.5L22.875 13.875Z" fill="#EAEAE8" />
                                <path d="M21 12.375H20.25V8.625L21.375 6.375H22.125L21 9V12.375Z" fill="#0276B4" />
                                <path
                                    d="M8.625 10.875H10.875V22.875H8.625V10.875ZM6.75 22.875H4.875L4.125 10.875H6.375L6.75 22.875ZM14.625 22.875H12.75L13.125 10.875H15.375L14.625 22.875Z"
                                    fill="#CBCBCB" />
                                <path
                                    d="M13.6741 5.62675C13.7198 5.51244 13.7426 5.39023 13.7411 5.26711C13.7396 5.14399 13.7139 5.02237 13.6654 4.9092C13.6169 4.79602 13.5466 4.69351 13.4585 4.60752C13.3703 4.52152 13.2661 4.45373 13.1518 4.408C13.1975 4.2937 13.2203 4.1715 13.2188 4.04839C13.2173 3.92529 13.1916 3.80368 13.1431 3.69052C13.0946 3.57736 13.0243 3.47486 12.9362 3.38888C12.8481 3.30289 12.7439 3.2351 12.6296 3.18937C12.5153 3.14365 12.3931 3.12088 12.27 3.12238C12.1469 3.12388 12.0252 3.14962 11.9121 3.19811C11.7989 3.24661 11.6964 3.31692 11.6104 3.40503C11.5244 3.49314 11.4567 3.59732 11.4109 3.71163C11.1801 3.61928 10.922 3.62243 10.6935 3.72037C10.4649 3.81831 10.2846 4.00303 10.1923 4.23389C10.1 4.46474 10.1031 4.72283 10.201 4.95137C10.299 5.1799 10.4837 5.36017 10.7146 5.45252C10.7243 5.45641 10.7342 5.45903 10.7439 5.4626C10.7437 5.46305 10.7435 5.46352 10.7433 5.464C10.6509 5.69486 10.6541 5.95295 10.752 6.18148C10.85 6.41002 11.0347 6.59029 11.2656 6.68264C11.4964 6.77498 11.7545 6.77184 11.983 6.6739C12.2116 6.57595 12.3918 6.39124 12.4842 6.16038C12.4842 6.15986 12.4845 6.15935 12.4847 6.15888C12.7132 6.24189 12.9651 6.23278 13.187 6.13348C13.409 6.03418 13.5837 5.85247 13.6741 5.62675Z"
                                    fill="#D18D28" />
                                <path
                                    d="M8.80689 4.6423C8.71626 4.41078 8.53737 4.22474 8.30958 4.1251C8.08179 4.02547 7.82375 4.0204 7.59222 4.11102C7.50161 3.87947 7.32274 3.6934 7.09494 3.59374C6.86715 3.49408 6.60909 3.48899 6.37755 3.5796C6.146 3.6702 5.95993 3.84908 5.86027 4.07687C5.76061 4.30467 5.75552 4.56272 5.84613 4.79427C5.61458 4.88487 5.42851 5.06375 5.32885 5.29154C5.22919 5.51934 5.2241 5.77739 5.3147 6.00894C5.40531 6.24049 5.58418 6.42656 5.81198 6.52622C6.03977 6.62588 6.29783 6.63097 6.52938 6.54036C6.53913 6.53657 6.54813 6.53169 6.5575 6.52761C6.5575 6.52808 6.55778 6.5286 6.55797 6.52911C6.60283 6.64376 6.66984 6.74845 6.75516 6.83721C6.84048 6.92596 6.94245 6.99704 7.05524 7.04639C7.16804 7.09574 7.28945 7.12238 7.41254 7.12481C7.53563 7.12724 7.65799 7.1054 7.77264 7.06053C7.88729 7.01567 7.99198 6.94867 8.08074 6.86334C8.16949 6.77802 8.24057 6.67605 8.28992 6.56326C8.33927 6.45047 8.36591 6.32906 8.36834 6.20597C8.37077 6.08288 8.34893 5.96051 8.30406 5.84586C8.30406 5.84535 8.30359 5.84492 8.30341 5.84441C8.52696 5.7486 8.70449 5.5696 8.79845 5.34526C8.89241 5.12092 8.89544 4.86883 8.80689 4.6423Z"
                                    fill="#FBB540" />
                                <path
                                    d="M4.68189 2.25255C4.63703 2.1379 4.57002 2.03321 4.4847 1.94445C4.39938 1.8557 4.29741 1.78461 4.18462 1.73527C4.07182 1.68592 3.95042 1.65927 3.82733 1.65685C3.70423 1.65442 3.58187 1.67626 3.46722 1.72113C3.42236 1.60648 3.35535 1.50178 3.27003 1.41303C3.18471 1.32428 3.08274 1.2532 2.96994 1.20385C2.85715 1.1545 2.73574 1.12785 2.61265 1.12543C2.48956 1.123 2.3672 1.14484 2.25255 1.1897C2.1379 1.23457 2.03321 1.30157 1.94445 1.38689C1.8557 1.47222 1.78462 1.57419 1.73527 1.68698C1.68592 1.79977 1.65927 1.92118 1.65685 2.04427C1.65442 2.16736 1.67626 2.28973 1.72113 2.40438C1.48958 2.49498 1.30351 2.67386 1.20385 2.90165C1.10419 3.12945 1.0991 3.3875 1.1897 3.61905C1.28031 3.85059 1.45918 4.03666 1.68698 4.13633C1.91477 4.23599 2.17283 4.24107 2.40438 4.15047C2.41413 4.14667 2.42313 4.14184 2.4325 4.13772C2.4325 4.13824 2.43278 4.1387 2.43297 4.13922C2.52357 4.37077 2.70245 4.55684 2.93024 4.6565C3.15804 4.75616 3.4161 4.76125 3.64764 4.67064C3.87919 4.58004 4.06526 4.40116 4.16492 4.17337C4.26458 3.94557 4.26967 3.68752 4.17906 3.45597C4.17906 3.45545 4.17859 3.45503 4.17841 3.45456C4.40193 3.35874 4.57944 3.17976 4.6734 2.95544C4.76735 2.73113 4.7704 2.47907 4.68189 2.25255Z"
                                    fill="#D18D28" />
                                <path
                                    d="M5.625 8.625C5.625 8.37636 5.52623 8.1379 5.35041 7.96209C5.1746 7.78627 4.93614 7.6875 4.6875 7.6875C4.6875 7.43886 4.58873 7.2004 4.41291 7.02459C4.2371 6.84877 3.99864 6.75 3.75 6.75C3.50136 6.75 3.2629 6.84877 3.08709 7.02459C2.91127 7.2004 2.8125 7.43886 2.8125 7.6875C2.56386 7.6875 2.3254 7.78627 2.14959 7.96209C1.97377 8.1379 1.875 8.37636 1.875 8.625C1.875 8.87364 1.97377 9.1121 2.14959 9.28791C2.3254 9.46373 2.56386 9.5625 2.8125 9.5625C2.82295 9.5625 2.83308 9.56128 2.84348 9.56095V9.5625C2.84348 9.81114 2.94226 10.0496 3.11807 10.2254C3.29389 10.4012 3.53234 10.5 3.78098 10.5C4.02962 10.5 4.26808 10.4012 4.4439 10.2254C4.61971 10.0496 4.71848 9.81114 4.71848 9.5625V9.56095C4.9615 9.55308 5.19194 9.45104 5.3611 9.27638C5.53026 9.10173 5.6249 8.86815 5.625 8.625Z"
                                    fill="#FBB540" />
                                <path
                                    d="M9.375 8.625C9.375 8.37636 9.27623 8.1379 9.10041 7.96209C8.9246 7.78627 8.68614 7.6875 8.4375 7.6875C8.4375 7.43886 8.33873 7.2004 8.16291 7.02459C7.9871 6.84877 7.74864 6.75 7.5 6.75C7.25136 6.75 7.0129 6.84877 6.83709 7.02459C6.66127 7.2004 6.5625 7.43886 6.5625 7.6875C6.31386 7.6875 6.0754 7.78627 5.89959 7.96209C5.72377 8.1379 5.625 8.37636 5.625 8.625C5.625 8.87364 5.72377 9.1121 5.89959 9.28791C6.0754 9.46373 6.31386 9.5625 6.5625 9.5625C6.57295 9.5625 6.58308 9.56128 6.59348 9.56095V9.5625C6.59348 9.81114 6.69226 10.0496 6.86807 10.2254C7.04389 10.4012 7.28234 10.5 7.53098 10.5C7.77962 10.5 8.01808 10.4012 8.1939 10.2254C8.36971 10.0496 8.46848 9.81114 8.46848 9.5625V9.56095C8.7115 9.55308 8.94194 9.45104 9.1111 9.27638C9.28026 9.10173 9.3749 8.86815 9.375 8.625Z"
                                    fill="#D18D28" />
                                <path
                                    d="M13.125 8.625C13.125 8.37636 13.0262 8.1379 12.8504 7.96209C12.6746 7.78627 12.4361 7.6875 12.1875 7.6875C12.1875 7.43886 12.0887 7.2004 11.9129 7.02459C11.7371 6.84877 11.4986 6.75 11.25 6.75C11.0014 6.75 10.7629 6.84877 10.5871 7.02459C10.4113 7.2004 10.3125 7.43886 10.3125 7.6875C10.0639 7.6875 9.8254 7.78627 9.64959 7.96209C9.47377 8.1379 9.375 8.37636 9.375 8.625C9.375 8.87364 9.47377 9.1121 9.64959 9.28791C9.8254 9.46373 10.0639 9.5625 10.3125 9.5625C10.323 9.5625 10.3331 9.56128 10.3435 9.56095V9.5625C10.3435 9.81114 10.4423 10.0496 10.6181 10.2254C10.7939 10.4012 11.0323 10.5 11.281 10.5C11.5296 10.5 11.7681 10.4012 11.9439 10.2254C12.1197 10.0496 12.2185 9.81114 12.2185 9.5625V9.56095C12.4615 9.55308 12.6919 9.45104 12.8611 9.27638C13.0303 9.10173 13.1249 8.86815 13.125 8.625Z"
                                    fill="#FBB540" />
                                <path
                                    d="M16.875 8.625C16.875 8.37636 16.7762 8.1379 16.6004 7.96209C16.4246 7.78627 16.1861 7.6875 15.9375 7.6875C15.9375 7.43886 15.8387 7.2004 15.6629 7.02459C15.4871 6.84877 15.2486 6.75 15 6.75C14.7514 6.75 14.5129 6.84877 14.3371 7.02459C14.1613 7.2004 14.0625 7.43886 14.0625 7.6875C13.8139 7.6875 13.5754 7.78627 13.3996 7.96209C13.2238 8.1379 13.125 8.37636 13.125 8.625C13.125 8.87364 13.2238 9.1121 13.3996 9.28791C13.5754 9.46373 13.8139 9.5625 14.0625 9.5625C14.073 9.5625 14.0831 9.56128 14.0935 9.56095V9.5625C14.0935 9.81114 14.1923 10.0496 14.3681 10.2254C14.5439 10.4012 14.7823 10.5 15.031 10.5C15.2796 10.5 15.5181 10.4012 15.6939 10.2254C15.8697 10.0496 15.9685 9.81114 15.9685 9.5625V9.56095C16.2115 9.55308 16.4419 9.45104 16.6111 9.27638C16.7803 9.10173 16.8749 8.86815 16.875 8.625Z"
                                    fill="#D18D28" />
                                <path
                                    d="M18.2782 4.48247C18.3881 4.25944 18.4049 4.00189 18.3249 3.76648C18.2449 3.53106 18.0747 3.33706 17.8517 3.22716C17.9616 3.00413 17.9784 2.74656 17.8984 2.51114C17.8184 2.27571 17.6482 2.08171 17.4251 1.9718C17.2021 1.8619 16.9445 1.84509 16.7091 1.92509C16.4737 2.00509 16.2797 2.17533 16.1698 2.39837C15.9467 2.28847 15.6892 2.27167 15.4537 2.35167C15.2183 2.43167 15.0243 2.60191 14.9144 2.82495C14.8045 3.04799 14.7877 3.30555 14.8677 3.54097C14.9477 3.77639 15.118 3.97039 15.341 4.08029C15.3504 4.08497 15.36 4.0883 15.3695 4.09257C15.3695 4.09304 15.3689 4.09346 15.3687 4.09393C15.3143 4.20436 15.2822 4.32444 15.2741 4.44729C15.2661 4.57015 15.2824 4.69338 15.322 4.80994C15.3616 4.92651 15.4238 5.03414 15.505 5.12667C15.5862 5.21921 15.6849 5.29485 15.7953 5.34926C15.9057 5.40368 16.0258 5.43581 16.1487 5.44382C16.2715 5.45184 16.3947 5.43557 16.5113 5.39596C16.6279 5.35635 16.7355 5.29416 16.828 5.21296C16.9206 5.13175 16.9962 5.03311 17.0506 4.92268C17.0506 4.92221 17.051 4.92174 17.0512 4.92127C17.2727 5.02169 17.5246 5.03205 17.7535 4.95017C17.9825 4.86828 18.1707 4.70056 18.2782 4.48247Z"
                                    fill="#FBB540" />
                                <path
                                    d="M9.75 19.875C11.614 19.875 13.125 18.364 13.125 16.5C13.125 14.636 11.614 13.125 9.75 13.125C7.88604 13.125 6.375 14.636 6.375 16.5C6.375 18.364 7.88604 19.875 9.75 19.875Z"
                                    fill="#EAEAE8" />
                                <path d="M22.2051 18.323L21.9838 20.5341L16.9265 19.6416L16.6978 17.3513L22.2051 18.323Z"
                                    fill="#0276B4" />
                                <path d="M15.75 13.875H23.25V15.375H15.75V13.875Z" fill="#CBCBCB" />
                                <path
                                    d="M17.625 9.375H1.875C1.46079 9.375 1.125 9.71079 1.125 10.125C1.125 10.5392 1.46079 10.875 1.875 10.875H17.625C18.0392 10.875 18.375 10.5392 18.375 10.125C18.375 9.71079 18.0392 9.375 17.625 9.375Z"
                                    fill="#EAEAE8" />
                                <path d="M20.25 11.625H21V12.375H20.25V11.625Z" fill="#015078" />
                            </svg>