<svg xmlns="http://www.w3.org/2000/svg" width="24" height="24" viewBox="0 0 24 24" fill="none">
                                <g clip-path="url(#clip0_12_4428)">
                                    <path
                                        d="M24 5.01446V16.9676C24 18.5187 22.4236 19.7801 20.4844 19.7801C19.5638 19.7801 18.7242 19.4956 18.0975 19.031C17.4037 18.5168 16.9688 17.7823 16.9688 16.9676C16.9688 16.1529 17.4037 15.4184 18.0975 14.9042C18.7242 14.4396 19.5638 14.1551 20.4844 14.1551C21.2789 14.1551 22.0045 14.3749 22.5938 14.7317V8.89337L18.0975 10.8204L14.1562 12.5093V21.1863C14.1562 22.7374 12.5798 23.9988 10.6406 23.9988C8.70141 23.9988 7.125 22.7374 7.125 21.1863C7.125 19.6352 8.70141 18.3738 10.6406 18.3738C11.4352 18.3738 12.1608 18.5937 12.75 18.9504V9.23321C12.75 8.95149 12.9173 8.69743 13.1756 8.58727L23.0194 4.36852C23.2378 4.27337 23.4877 4.29774 23.6841 4.42759C23.8819 4.5579 24 4.77821 24 5.01446Z"
                                        fill="#FF8FB8" />
                                    <path
                                        d="M11.25 7.73309C11.25 9.37836 9.80156 10.8831 9.63281 11.0377C9.36563 11.319 8.91572 11.319 8.64849 11.0377C8.36724 10.7705 8.36724 10.3205 8.64849 10.0534C8.97188 9.71586 9.84375 8.64711 9.84375 7.73309C9.84375 6.22841 8.29692 4.03466 7.03125 2.52997V12.655C7.03125 12.7674 7.01719 12.9081 7.00308 13.0487C6.8625 13.8081 6.35625 14.469 5.625 14.9049C5.04848 15.2565 4.30313 15.4675 3.51563 15.4675C1.575 15.4675 0 14.2018 0 12.655C0 11.108 1.575 9.84247 3.51563 9.84247C4.31719 9.84247 5.03442 10.0674 5.625 10.419V0.701844C5.625 0.420594 5.79375 0.167469 6.06094 0.054922C6.32813 -0.0576249 6.63745 0.0127814 6.82027 0.209609C7.28442 0.659609 11.25 4.72372 11.25 7.73309Z"
                                        fill="#979FEF" />
                                    <path
                                        d="M11.25 7.73309C11.25 9.37836 9.80156 10.8831 9.63281 11.0377C9.36562 11.319 8.91572 11.319 8.64848 11.0377C8.36723 10.7705 8.36723 10.3205 8.64848 10.0534C8.97187 9.71586 9.84375 8.64711 9.84375 7.73309C9.84375 6.22841 8.29692 4.03466 7.03125 2.52997V12.655C7.03125 12.7674 7.01719 12.9081 7.00308 13.0487C6.8625 13.8081 6.35625 14.469 5.625 14.9049V0.701844C5.625 0.420594 5.79375 0.167469 6.06094 0.054922C6.32812 -0.0576249 6.63745 0.0127814 6.82027 0.209609C7.28442 0.659609 11.25 4.72372 11.25 7.73309Z"
                                        fill="#6B77E8" />
                                    <path
                                        d="M23.6841 4.42759C23.4877 4.29774 23.2378 4.27337 23.0194 4.36852L18.0975 6.4779V10.8204L22.5938 8.89337V14.7317C22.0045 14.3749 21.2789 14.1551 20.4844 14.1551C19.5638 14.1551 18.7242 14.4396 18.0975 14.9042C17.4037 15.4184 16.9688 16.1529 16.9688 16.9676C16.9688 17.7823 17.4037 18.5168 18.0975 19.031C18.7242 19.4956 19.5638 19.7801 20.4844 19.7801C22.4236 19.7801 24 18.5187 24 16.9676V5.01446C24 4.77821 23.8819 4.5579 23.6841 4.42759Z"
                                        fill="#FF5F96" />
                                </g>
                                <defs>
                                    <clipPath id="clip0_12_4428">
                                        <rect width="24" height="24" fill="white" />
                                    </clipPath>
                                </defs>
                            </svg>