<svg xmlns="http://www.w3.org/2000/svg" width="24" height="24" viewBox="0 0 24 24" fill="none">
                                <path
                                    d="M10.7565 15.6002C10.7354 15.7421 10.7046 15.8825 10.6645 16.0202C10.6174 16.1848 10.5572 16.3453 10.4845 16.5002C10.4642 16.5417 10.4341 16.5776 10.3968 16.6047C10.3595 16.6319 10.3161 16.6495 10.2704 16.6561C10.2248 16.6626 10.1782 16.6579 10.1347 16.6423C10.0913 16.6267 10.0523 16.6007 10.0213 16.5666C8.91197 15.3274 7.5979 14.2881 6.13645 13.4942C6.0617 13.4538 5.9747 13.4424 5.89206 13.4621C5.80943 13.4818 5.73694 13.5313 5.68846 13.6011C5.63997 13.6708 5.61888 13.756 5.62921 13.8403C5.63954 13.9246 5.68056 14.0022 5.74445 14.0582C6.97791 15.1215 8.10435 16.303 9.10765 17.5858C9.13307 17.6196 9.15077 17.6586 9.1595 17.7C9.16823 17.7414 9.16777 17.7842 9.15816 17.8254C9.14855 17.8665 9.13002 17.9051 9.10387 17.9384C9.07773 17.9716 9.04461 17.9987 9.00685 18.0178C8.54965 18.2435 8.0508 18.3725 7.54149 18.3966C7.03218 18.4208 6.52337 18.3396 6.04685 18.1582C2.17885 16.7622 2.83485 13.8862 0.51085 12.4182C0.478817 12.4017 0.451646 12.3772 0.432028 12.3469C0.412411 12.3167 0.401028 12.2819 0.399007 12.2459C0.396986 12.21 0.404398 12.1741 0.420507 12.1419C0.436616 12.1096 0.460865 12.0822 0.49085 12.0622C1.47485 11.5302 4.68285 10.0542 8.03885 11.2622C8.82156 11.5455 9.50334 12.0534 9.99885 12.7222L10.7565 15.6002Z"
                                    fill="#8BA820" />
                                <path
                                    d="M12.4645 16.9241C12.4304 17.0148 12.4298 17.1147 12.463 17.2058C12.4962 17.2968 12.5608 17.373 12.6453 17.4205C13.5818 17.8946 14.6378 18.0807 15.68 17.9552C16.7221 17.8296 17.7037 17.3982 18.5009 16.7153C23.2689 12.8753 20.9529 9.11931 23.5209 5.91891C23.5575 5.88034 23.5834 5.83282 23.5959 5.78111C23.6084 5.7294 23.6071 5.67532 23.5921 5.62427C23.5771 5.57323 23.549 5.52703 23.5105 5.49028C23.472 5.45354 23.4246 5.42754 23.3729 5.41491C21.7289 5.13491 16.4969 4.59091 12.3489 7.91531C9.95891 9.84371 9.29651 13.2629 10.8109 15.6897C10.8369 15.7323 10.8737 15.7672 10.9176 15.7909C10.9615 15.8146 11.0109 15.8262 11.0608 15.8246C11.1106 15.8229 11.1592 15.8081 11.2014 15.7816C11.2437 15.7551 11.2781 15.7179 11.3013 15.6737C11.8333 14.6421 13.3465 11.9481 15.4613 10.1993C15.5318 10.1411 15.6211 10.1107 15.7125 10.114C15.8038 10.1173 15.8908 10.154 15.9568 10.2171C16.0229 10.2802 16.0636 10.3654 16.071 10.4565C16.0785 10.5476 16.0522 10.6383 15.9973 10.7113C14.5239 12.5995 13.3338 14.6924 12.4645 16.9241Z"
                                    fill="#9CC824" />
                            </svg>