<svg width="62" height="62" viewBox="0 0 62 62" fill="none" xmlns="http://www.w3.org/2000/svg">
                                <circle opacity="0.2" cx="31" cy="31" r="31" fill="white" />
                                <circle cx="31" cy="31" r="26" fill="white" />
                                <path
                                    d="M42.5138 36.9121L41.9688 36.6396V31C41.9688 29.0599 41.5249 27.5689 40.6495 26.5684C40.3102 26.1732 39.8893 25.8563 39.4157 25.6395C38.9421 25.4226 38.4271 25.3111 37.9062 25.3125C36.5341 25.3125 35.6766 25.8477 35.3413 26.1072C34.5268 26.0296 33.8542 26.2163 33.3406 26.6633C32.2162 27.6423 32.2179 29.5875 32.2188 30.5223V36.6395L31.6736 36.9121C31.5859 36.9561 31.5038 37.0104 31.4291 37.074C31.3656 37.0135 31.2958 36.9602 31.2208 36.915L27.75 34.8325V34.5505C28.126 34.2888 28.4332 33.9401 28.6454 33.5341C28.8577 33.1282 28.9686 32.6769 28.9688 32.2188V31.1643C29.7711 30.2522 29.7812 29.0277 29.7812 28.9736C29.7812 28.0584 29.5194 27.3796 29.0029 26.9562C28.4825 26.5296 27.8502 26.4961 27.5089 26.5159C26.961 25.9275 26.2384 25.5311 25.4478 25.385C24.6587 25.2448 23.8466 25.3159 23.0939 25.5911C21.727 26.086 20.8438 27.0949 20.8438 28.1613C20.8438 29.7939 21.3477 30.5111 21.6562 30.7976V32.2188C21.6564 32.6769 21.7673 33.1282 21.9796 33.5341C22.1918 33.9401 22.499 34.2888 22.875 34.5505V34.8325L19.4042 36.915C19.2241 37.0237 19.0751 37.177 18.9715 37.36C18.8679 37.5431 18.8131 37.7497 18.8125 37.96V42.375C18.8125 42.4828 18.8553 42.5861 18.9315 42.6623C19.0077 42.7385 19.111 42.7813 19.2188 42.7813H42.7812C42.889 42.7813 42.9923 42.7385 43.0685 42.6623C43.1447 42.5861 43.1875 42.4828 43.1875 42.375V38.0022C43.1883 37.7757 43.1256 37.5535 43.0065 37.3608C42.8874 37.1681 42.7167 37.0127 42.5138 36.9121ZM21.6562 28.1613C21.6562 27.4523 22.3451 26.7265 23.3704 26.3553C24.4679 25.958 26.006 25.9719 27.0317 27.2027C27.0786 27.2589 27.1397 27.3014 27.2086 27.3257C27.2776 27.35 27.3518 27.3553 27.4235 27.341C27.4298 27.3398 28.0524 27.2277 28.4879 27.5847C28.807 27.8463 28.9689 28.3137 28.9689 28.9726C28.9689 28.9812 28.9591 29.6839 28.588 30.3111L27.2754 28.3423C27.2438 28.2948 27.2026 28.2546 27.1544 28.2242C27.1062 28.1937 27.0521 28.1738 26.9957 28.1656C26.9393 28.1574 26.8818 28.1612 26.827 28.1767C26.7721 28.1922 26.7211 28.219 26.6773 28.2555C26.6546 28.2745 24.4176 30.1177 22.1965 30.1903C22.0422 30.0384 21.6562 29.5223 21.6562 28.1613ZM22.4688 32.2188V30.9878C24.3416 30.8364 26.1052 29.6925 26.8407 29.1546L28.1562 31.1279V32.2188C28.1556 32.7573 27.9414 33.2736 27.5606 33.6544C27.1798 34.0352 26.6635 34.2494 26.125 34.25H24.5C23.9615 34.2494 23.4452 34.0352 23.0644 33.6544C22.6836 33.2736 22.4694 32.7573 22.4688 32.2188ZM26.9375 34.9436V35.0625C26.9375 35.4935 26.7663 35.9068 26.4615 36.2116C26.1568 36.5163 25.7435 36.6875 25.3125 36.6875C24.8815 36.6875 24.4682 36.5163 24.1635 36.2116C23.8587 35.9068 23.6875 35.4935 23.6875 35.0625V34.9436C23.9511 35.0225 24.2248 35.0625 24.5 35.0625H26.125C26.4002 35.0625 26.6739 35.0225 26.9375 34.9436ZM31 38.0022V41.9688H29.375V40.75C29.375 40.6423 29.3322 40.5389 29.256 40.4627C29.1798 40.3866 29.0765 40.3438 28.9688 40.3438C28.861 40.3438 28.7577 40.3866 28.6815 40.4627C28.6053 40.5389 28.5625 40.6423 28.5625 40.75V41.9688H22.0625V40.75C22.0625 40.6423 22.0197 40.5389 21.9435 40.4627C21.8673 40.3866 21.764 40.3438 21.6562 40.3438C21.5485 40.3438 21.4452 40.3866 21.369 40.4627C21.2928 40.5389 21.25 40.6423 21.25 40.75V41.9688H19.625V37.96C19.6252 37.8899 19.6434 37.821 19.678 37.76C19.7125 37.699 19.7622 37.6479 19.8222 37.6117L22.9672 35.7247C23.1113 36.2358 23.4184 36.6857 23.8418 37.0062C24.2651 37.3267 24.7815 37.5001 25.3125 37.5001C25.8435 37.5001 26.3599 37.3267 26.7832 37.0062C27.2066 36.6857 27.5137 36.2358 27.6578 35.7247L30.8028 37.6117C30.8628 37.648 30.9125 37.6991 30.947 37.7601C30.9816 37.8211 30.9998 37.89 31 37.9601V38.0022ZM33.8742 27.2761C34.2456 26.9527 34.7486 26.8406 35.4125 26.9336C35.4742 26.9427 35.5373 26.9372 35.5965 26.9176C35.6558 26.898 35.7096 26.8648 35.7538 26.8207C35.7831 26.7923 36.4879 26.125 37.9062 26.125C38.3112 26.1244 38.7114 26.2116 39.0794 26.3805C39.4474 26.5494 39.7744 26.7961 40.0379 27.1035C40.78 27.9515 41.1562 29.2625 41.1562 31V36.2333L39.125 35.2177V34.5505C39.501 34.2888 39.8082 33.9401 40.0204 33.5341C40.2327 33.1282 40.3436 32.6769 40.3438 32.2188V31C40.3437 30.9094 40.3135 30.8214 40.2577 30.75C40.2019 30.6786 40.1239 30.6279 40.036 30.6059C38.4725 30.215 37.5267 29.5274 37.0086 29.0195C36.4492 28.4711 36.2532 28.0075 36.252 28.0052C36.2191 27.9228 36.1601 27.8535 36.0841 27.8078C36.0081 27.7621 35.9193 27.7425 35.8311 27.7521C35.7429 27.7616 35.6603 27.7997 35.5958 27.8606C35.5314 27.9215 35.4886 28.0018 35.474 28.0893C35.3691 28.719 34.9041 30.4816 34.0244 31.0681C33.9688 31.1052 33.9232 31.1555 33.8917 31.2145C33.8602 31.2735 33.8437 31.3394 33.8438 31.4063V32.2188C33.8439 32.6769 33.9548 33.1282 34.1671 33.5341C34.3793 33.9401 34.6865 34.2888 35.0625 34.5505V35.2177L33.0312 36.2333V30.5216C33.0305 29.707 33.0291 28.0119 33.8742 27.2761ZM37.5 34.25H36.6875C36.149 34.2494 35.6327 34.0352 35.2519 33.6544C34.8711 33.2736 34.6569 32.7573 34.6562 32.2188V31.6104C35.1555 31.2024 35.574 30.5319 35.9021 29.6132C35.9541 29.4675 36.0022 29.3204 36.0464 29.1721C36.6053 29.8556 37.6625 30.7789 39.5312 31.3119V32.2188C39.5306 32.7573 39.3164 33.2736 38.9356 33.6544C38.5548 34.0352 38.0385 34.2494 37.5 34.25ZM38.3125 34.9436V35.4688C38.3125 35.792 38.1841 36.102 37.9555 36.3305C37.727 36.5591 37.417 36.6875 37.0938 36.6875C36.7705 36.6875 36.4605 36.5591 36.232 36.3305C36.0034 36.102 35.875 35.792 35.875 35.4688V34.9436C36.1386 35.0225 36.4123 35.0625 36.6875 35.0625H37.5C37.7752 35.0625 38.0489 35.0225 38.3125 34.9436ZM42.375 41.9688H40.75V40.75C40.75 40.6423 40.7072 40.5389 40.631 40.4627C40.5548 40.3866 40.4515 40.3438 40.3438 40.3438C40.236 40.3438 40.1327 40.3866 40.0565 40.4627C39.9803 40.5389 39.9375 40.6423 39.9375 40.75V41.9688H34.25V40.75C34.25 40.6423 34.2072 40.5389 34.131 40.4627C34.0548 40.3866 33.9515 40.3438 33.8438 40.3438C33.736 40.3438 33.6327 40.3866 33.5565 40.4627C33.4803 40.5389 33.4375 40.6423 33.4375 40.75V41.9688H31.8125V38.0022C31.8122 37.9267 31.8331 37.8526 31.8728 37.7884C31.9125 37.7241 31.9694 37.6723 32.0371 37.6388L35.1563 36.0792C35.2862 36.4912 35.5441 36.8511 35.8925 37.1066C36.2409 37.3621 36.6616 37.4998 37.0936 37.4998C37.5257 37.4998 37.9464 37.3621 38.2948 37.1066C38.6432 36.8511 38.9011 36.4912 39.031 36.0792L42.1502 37.6388C42.2179 37.6723 42.2748 37.7241 42.3146 37.7883C42.3543 37.8526 42.3752 37.9267 42.375 38.0022V41.9688Z"
                                    fill="#A473CE" />
                                <path
                                    d="M30.7128 25.8668C30.789 25.943 30.8923 25.9858 31 25.9858C31.1078 25.9858 31.2111 25.943 31.2873 25.8668L34.0616 23.0925C34.4417 22.7111 34.6551 22.1946 34.6551 21.6562C34.6551 21.1177 34.4417 20.6013 34.0616 20.2199C33.6806 19.839 33.1639 19.6251 32.6252 19.6251C32.0864 19.6251 31.5697 19.839 31.1887 20.2199L30.9999 20.4083L30.8114 20.2197C30.6227 20.0311 30.3988 19.8815 30.1523 19.7794C29.9058 19.6773 29.6417 19.6248 29.3749 19.6248C29.1081 19.6248 28.844 19.6773 28.5975 19.7794C28.3511 19.8815 28.1271 20.0311 27.9385 20.2198C27.7499 20.4084 27.6002 20.6323 27.4981 20.8788C27.396 21.1253 27.3435 21.3894 27.3435 21.6562C27.3435 21.923 27.3961 22.1871 27.4981 22.4336C27.6002 22.6801 27.7499 22.904 27.9385 23.0926L30.7128 25.8668ZM28.5131 20.7943C28.7418 20.5658 29.0518 20.4374 29.375 20.4374C29.6983 20.4374 30.0083 20.5658 30.237 20.7943L30.7128 21.2701C30.789 21.3463 30.8923 21.3891 31 21.3891C31.1078 21.3891 31.2111 21.3463 31.2873 21.2701L31.7631 20.7943C31.9917 20.5657 32.3017 20.4372 32.625 20.4372C32.9483 20.4372 33.2583 20.5657 33.4869 20.7942C33.7155 21.0228 33.844 21.3329 33.844 21.6562C33.844 21.9794 33.7156 22.2895 33.487 22.5181L30.9999 25.005L28.5132 22.5182C28.2851 22.2893 28.157 21.9794 28.157 21.6562C28.157 21.3331 28.285 21.0232 28.5131 20.7943Z"
                                    fill="#A473CE" />
                            </svg>