<svg xmlns="http://www.w3.org/2000/svg" width="24" height="24" viewBox="0 0 24 24" fill="none">
                                <g clip-path="url(#clip0_12_4294)">
                                    <path
                                        d="M8.23571 10.6683C8.87879 9.93049 9.57535 9.38402 10.2056 9.07858C10.1696 9.02335 10.1302 8.97043 10.0876 8.92015C9.39043 8.09965 8.06869 8.30252 7.13541 9.37329C6.20213 10.4441 6.01074 11.9772 6.70786 12.7977C6.74969 12.847 6.79473 12.8935 6.84268 12.9369C7.11352 12.2085 7.59268 11.4061 8.23571 10.6683Z"
                                        fill="#59CC56" />
                                    <path opacity="0.2"
                                        d="M10.0876 8.92007C10.0664 8.89512 10.0444 8.87089 10.0216 8.84741C9.33371 9.08647 8.55689 9.54065 7.80338 10.182C7.20235 10.6936 6.69352 11.2584 6.30591 11.8175C6.35049 12.1922 6.48244 12.5324 6.70791 12.7977C6.74974 12.847 6.79477 12.8935 6.84272 12.9368C7.11356 12.2084 7.59272 11.406 8.23575 10.6683C8.87883 9.93046 9.57539 9.38399 10.2056 9.07855C10.1697 9.02325 10.1303 8.97032 10.0876 8.92007Z"
                                        fill="black" />
                                    <path
                                        d="M7.13808 13.3246C7.1926 13.6476 7.28503 13.9716 7.40564 14.2732C7.56652 14.6755 7.78472 15.0406 8.04502 15.3506C8.5613 15.9655 9.27249 16.3368 10.0539 16.5064C10.6144 16.628 10.9701 17.181 10.8485 17.7414C10.7048 18.4031 9.98245 18.7249 9.3788 18.4553C8.85042 18.2193 8.34394 17.9067 7.89999 17.5204C7.45888 17.1366 7.09102 16.676 6.81427 16.161C6.54333 15.656 6.36441 15.1211 6.26855 14.5854C6.19678 14.1843 6.16683 13.7834 6.18127 13.3788C6.18619 13.2416 6.19838 13.0971 6.21375 12.9589C6.22543 12.855 6.27389 12.7587 6.35037 12.6874C6.42685 12.6161 6.52631 12.5746 6.63077 12.5702C6.73523 12.5659 6.83781 12.599 6.91995 12.6637C7.0021 12.7284 7.05841 12.8203 7.07869 12.9229C7.10409 13.0521 7.11595 13.1933 7.13808 13.3246Z"
                                        fill="#783D26" />
                                    <path opacity="0.2"
                                        d="M9.94742 17.9184C9.41904 17.6824 8.91256 17.3699 8.4686 16.9835C8.0275 16.5998 7.65964 16.1392 7.38288 15.6242C7.11195 15.1192 6.93303 14.5843 6.83717 14.0486C6.75063 13.5648 6.72256 13.0732 6.76545 12.5852C5.95479 12.3688 6.1872 14.1307 6.26853 14.5853C6.36434 15.121 6.54331 15.656 6.81424 16.1609C7.0911 16.6759 7.45894 17.1364 7.89996 17.5203C8.34392 17.9067 8.85035 18.2192 9.37878 18.4552C9.90326 18.6894 10.5424 18.4812 10.7783 17.9522C10.5124 18.0576 10.2092 18.0353 9.94742 17.9184Z"
                                        fill="black" />
                                    <path
                                        d="M15.9811 16.8378C15.5893 14.6759 15.6922 12.1396 16.3874 9.54539C16.7122 8.33297 17.1431 7.19653 17.6545 6.15825L15.6115 5.61084C15.5353 6.7657 15.3401 7.96532 15.0153 9.1777C14.3202 11.7719 13.1412 14.0199 11.7209 15.6962L15.9811 16.8378Z"
                                        fill="#783D26" />
                                    <path opacity="0.2"
                                        d="M16.9918 7.68168C16.8897 7.36007 16.6524 7.10428 16.3293 7.0177C16.3282 7.01742 16.3271 7.01723 16.3259 7.0169C16.3791 6.61851 16.4196 6.22364 16.4453 5.83425L15.6115 5.61084C15.4813 6.79767 15.4117 7.46287 15.2229 8.32312C15.1602 8.60953 15.091 8.89446 15.0153 9.1777C14.3202 11.7719 13.1412 14.0199 11.7209 15.6962L12.7972 15.9846C14.2175 14.3083 15.1539 11.9954 15.8491 9.40111C15.8648 9.34242 15.8788 9.28396 15.8939 9.22537C16.1169 9.24595 16.338 9.18309 16.5263 9.05498C16.6637 8.5914 16.819 8.13329 16.9918 7.68168Z"
                                        fill="black" />
                                    <path
                                        d="M16.1553 10.3723C16.1245 10.3723 16.0938 10.3683 16.0641 10.3603L15.6709 10.2549C15.5808 10.2307 15.504 10.1718 15.4574 10.0911C15.4108 10.0103 15.3981 9.91435 15.4223 9.82428C15.4464 9.73422 15.5053 9.65743 15.5861 9.61081C15.6668 9.5642 15.7628 9.55157 15.8529 9.57571L16.2461 9.68108C16.3286 9.70306 16.4002 9.7543 16.4477 9.82523C16.4952 9.89616 16.5152 9.98194 16.5041 10.0666C16.493 10.1512 16.4515 10.2289 16.3873 10.2852C16.3231 10.3414 16.2407 10.3724 16.1553 10.3723ZM15.1142 12.2372C15.0834 12.2372 15.0527 12.2331 15.0229 12.2251L14.1886 12.0015C14.0986 11.9774 14.0218 11.9185 13.9751 11.8377C13.9285 11.757 13.9159 11.661 13.94 11.5709C13.9642 11.4808 14.0231 11.4041 14.1038 11.3574C14.1846 11.3108 14.2806 11.2982 14.3706 11.3223L15.205 11.5459C15.2496 11.5578 15.2914 11.5784 15.328 11.6065C15.3646 11.6346 15.3954 11.6697 15.4184 11.7097C15.4415 11.7497 15.4565 11.7938 15.4625 11.8396C15.4685 11.8853 15.4655 11.9319 15.4535 11.9765C15.4335 12.0512 15.3894 12.1172 15.3281 12.1644C15.2667 12.2115 15.1915 12.2371 15.1142 12.2372ZM13.9003 13.3008C13.8695 13.3008 13.8388 13.2967 13.8091 13.2887L13.62 13.238C13.5754 13.2261 13.5336 13.2055 13.4969 13.1774C13.4603 13.1493 13.4296 13.1143 13.4065 13.0743C13.3834 13.0343 13.3684 12.9902 13.3624 12.9444C13.3564 12.8986 13.3594 12.8521 13.3714 12.8075C13.4216 12.6199 13.6146 12.5084 13.8019 12.5589L13.991 12.6095C14.0356 12.6215 14.0774 12.6421 14.1141 12.6702C14.1507 12.6983 14.1815 12.7333 14.2045 12.7733C14.2276 12.8133 14.2426 12.8574 14.2486 12.9032C14.2547 12.949 14.2516 12.9955 14.2397 13.0401C14.2197 13.1148 14.1756 13.1809 14.1142 13.228C14.0528 13.2751 13.9777 13.3007 13.9003 13.3008ZM15.6101 14.7627C15.5793 14.7627 15.5486 14.7586 15.5189 14.7506L14.7873 14.5545C14.7427 14.5425 14.7009 14.5219 14.6643 14.4938C14.6277 14.4657 14.5969 14.4307 14.5738 14.3907C14.5508 14.3507 14.5358 14.3065 14.5298 14.2608C14.5237 14.215 14.5268 14.1685 14.5387 14.1239C14.5507 14.0793 14.5713 14.0375 14.5994 14.0008C14.6275 13.9642 14.6625 13.9334 14.7025 13.9104C14.7425 13.8873 14.7866 13.8723 14.8324 13.8663C14.8782 13.8603 14.9247 13.8633 14.9693 13.8753L15.7009 14.0714C15.7834 14.0934 15.855 14.1446 15.9025 14.2155C15.95 14.2865 15.97 14.3723 15.9589 14.4569C15.9478 14.5415 15.9063 14.6192 15.8421 14.6755C15.7779 14.7317 15.6955 14.7627 15.6101 14.7627Z"
                                        fill="#783D26" />
                                    <path opacity="0.2"
                                        d="M16.4104 10.1171C16.3796 10.1171 16.3489 10.113 16.3192 10.105L15.9259 9.99962C15.7402 9.94989 15.6295 9.76028 15.6762 9.57446C15.6154 9.58966 15.5597 9.62084 15.5151 9.66478C15.4704 9.70872 15.4382 9.76382 15.422 9.82435C15.4101 9.86895 15.407 9.91546 15.413 9.96124C15.4191 10.007 15.4341 10.0511 15.4571 10.0911C15.4802 10.1311 15.5109 10.1662 15.5476 10.1943C15.5842 10.2224 15.626 10.243 15.6706 10.2549L16.0638 10.3603C16.0943 10.3685 16.125 10.3724 16.1551 10.3724C16.2324 10.3723 16.3076 10.3468 16.3689 10.2996C16.4303 10.2525 16.4744 10.1865 16.4944 10.1117C16.4949 10.1096 16.4952 10.1074 16.4958 10.1053C16.4679 10.1128 16.4392 10.1167 16.4104 10.1171ZM15.3692 11.9819C15.3384 11.9819 15.3078 11.9778 15.278 11.9698L14.4437 11.7462C14.3546 11.7223 14.2785 11.6644 14.2317 11.5848C14.185 11.5053 14.1714 11.4106 14.1939 11.3211C14.1331 11.3363 14.0775 11.3675 14.0328 11.4114C13.9881 11.4554 13.956 11.5105 13.9398 11.571C13.9278 11.6156 13.9248 11.6621 13.9308 11.7079C13.9368 11.7537 13.9518 11.7978 13.9749 11.8378C13.998 11.8778 14.0287 11.9128 14.0653 11.9409C14.102 11.969 14.1438 11.9897 14.1884 12.0016L15.0227 12.2252C15.0524 12.2332 15.0831 12.2372 15.1139 12.2372C15.1913 12.2372 15.2665 12.2116 15.3278 12.1645C15.3891 12.1173 15.4332 12.0513 15.4532 11.9766C15.4538 11.9744 15.4541 11.9723 15.4547 11.9701C15.4268 11.9775 15.3981 11.9815 15.3692 11.9819ZM14.1554 13.0455C14.1246 13.0455 14.094 13.0414 14.0642 13.0334L13.8751 12.9827C13.6893 12.933 13.5786 12.7434 13.6254 12.5575C13.5498 12.5764 13.4826 12.6199 13.4345 12.6811C13.3863 12.7423 13.3598 12.8177 13.3591 12.8956C13.3585 12.9735 13.3838 13.0494 13.4309 13.1114C13.4781 13.1734 13.5445 13.2179 13.6198 13.2381L13.8089 13.2887C13.8386 13.2968 13.8693 13.3008 13.9001 13.3008C13.9775 13.3008 14.0526 13.2752 14.114 13.228C14.1753 13.1809 14.2194 13.1149 14.2394 13.0401C14.24 13.038 14.2403 13.0359 14.2408 13.0337C14.2129 13.0412 14.1843 13.0451 14.1554 13.0455ZM15.8652 14.5074C15.8344 14.5074 15.8037 14.5033 15.774 14.4953L15.0424 14.2992C14.9533 14.2753 14.8771 14.2173 14.8304 14.1377C14.7837 14.0581 14.7701 13.9634 14.7927 13.8739C14.7171 13.8928 14.65 13.9363 14.6018 13.9975C14.5536 14.0587 14.5271 14.1341 14.5265 14.212C14.5259 14.2899 14.5511 14.3658 14.5983 14.4278C14.6454 14.4898 14.7118 14.5344 14.7871 14.5545L15.5186 14.7506C15.5484 14.7586 15.579 14.7627 15.6099 14.7627C15.6872 14.7626 15.7624 14.737 15.8237 14.6899C15.8851 14.6428 15.9292 14.5767 15.9492 14.502C15.9497 14.4999 15.95 14.4977 15.9506 14.4955C15.9227 14.503 15.894 14.507 15.8652 14.5074Z"
                                        fill="black" />
                                    <path
                                        d="M17.7012 2.56694C16.0726 3.78813 15.6742 6.00729 16.8113 7.52355L16.8121 7.52468C16.8466 7.57066 16.9188 7.55758 16.9361 7.50269C17.035 7.18751 17.1729 6.8703 17.3472 6.55797C17.3532 6.54728 17.3563 6.53522 17.3562 6.52297C17.3562 6.51071 17.353 6.49868 17.3469 6.48804L17.1788 6.19526C17.0887 6.03832 17.2022 5.84271 17.3831 5.84313L17.7819 5.84407C17.8039 5.84411 17.8246 5.83394 17.838 5.8165C18.109 5.46536 18.4275 5.12866 18.7898 4.81746C18.8078 4.80204 18.817 4.77869 18.8141 4.75516L18.7618 4.32068C18.7402 4.14101 18.9211 4.0053 19.0876 4.07641L19.49 4.24835C19.5118 4.25768 19.5367 4.25538 19.5566 4.24244C19.9568 3.98182 20.3693 3.77046 20.7823 3.60865C20.8028 3.60063 20.8184 3.58366 20.8245 3.56252L20.9353 3.17946C20.9856 3.00565 21.2051 2.95141 21.3305 3.08191L21.5645 3.32533C21.5818 3.34333 21.6072 3.35074 21.6316 3.34516C21.9802 3.26538 22.3233 3.22188 22.6536 3.21518C22.7111 3.214 22.7439 3.14833 22.7094 3.1023L22.7086 3.10118C21.5716 1.58496 19.3297 1.34576 17.7012 2.56694Z"
                                        fill="#59CC56" />
                                    <path opacity="0.2"
                                        d="M22.7096 3.10234L22.7087 3.10122C22.5249 2.85619 22.3069 2.63874 22.0614 2.45547C21.7899 2.47215 21.511 2.51261 21.2283 2.57725C21.2164 2.58001 21.2039 2.57964 21.1922 2.57617C21.1804 2.57269 21.1698 2.56623 21.1612 2.55742L20.9273 2.314C20.8019 2.18354 20.5823 2.23773 20.532 2.41155L20.4212 2.79461C20.4182 2.80502 20.4129 2.81459 20.4055 2.82259C20.3982 2.83059 20.3892 2.8368 20.3791 2.84073C19.9661 3.00255 19.5536 3.21395 19.1534 3.47453C19.1436 3.48092 19.1324 3.4848 19.1208 3.48583C19.1092 3.48686 19.0975 3.48501 19.0867 3.48044L18.6843 3.3085C18.5179 3.23739 18.337 3.37309 18.3586 3.55276L18.4109 3.98725C18.4137 4.01078 18.4045 4.03408 18.3866 4.04955C18.0243 4.36075 17.7058 4.6975 17.4348 5.04859C17.4282 5.05719 17.4197 5.06415 17.4099 5.06893C17.4002 5.07371 17.3895 5.07618 17.3787 5.07615L16.9799 5.07522C16.799 5.0748 16.6854 5.2704 16.7755 5.42734L16.9437 5.72012C16.9561 5.74173 16.9561 5.76826 16.9439 5.79006C16.7697 6.10239 16.6318 6.41959 16.5329 6.73478C16.5157 6.78962 16.4434 6.80275 16.4089 6.75676L16.408 6.75564C16.3919 6.73408 16.3771 6.71186 16.3616 6.69001C16.4695 6.98857 16.6211 7.26947 16.8114 7.52355L16.8123 7.52467C16.8468 7.57065 16.919 7.55758 16.9363 7.50269C17.0352 7.1875 17.1731 6.87029 17.3474 6.55797C17.3533 6.54728 17.3565 6.53522 17.3564 6.52296C17.3564 6.5107 17.3532 6.49867 17.3471 6.48803L17.1789 6.19525C17.0888 6.03831 17.2024 5.8427 17.3833 5.84312L17.7821 5.84406C17.8041 5.84411 17.8247 5.83394 17.8382 5.8165C18.1092 5.46536 18.4277 5.12865 18.79 4.81745C18.8079 4.80203 18.8172 4.77869 18.8143 4.75515L18.762 4.32067C18.7404 4.141 18.9213 4.0053 19.0877 4.0764L19.4902 4.24834C19.5119 4.25767 19.5369 4.25537 19.5568 4.24244C19.957 3.98181 20.3695 3.77045 20.7825 3.60864C20.803 3.60062 20.8185 3.58365 20.8246 3.56247L20.9354 3.1794C20.9857 3.00559 21.2054 2.95136 21.3307 3.08186L21.5647 3.32528C21.5819 3.34328 21.6074 3.35069 21.6317 3.34511C21.9803 3.26533 22.3235 3.22183 22.6538 3.21512C22.7112 3.21404 22.744 3.14837 22.7096 3.10234Z"
                                        fill="black" />
                                    <path
                                        d="M17.7004 2.24566C18.284 3.94399 17.4752 5.76133 15.894 6.30471L15.8928 6.30513C15.8448 6.32158 15.7986 6.27625 15.8132 6.22764C15.8971 5.94855 15.9536 5.64869 15.9812 5.33435C15.9831 5.31241 15.9962 5.29305 16.016 5.28344L16.2838 5.15304C16.4273 5.08315 16.4414 4.88407 16.3091 4.79472L16.0176 4.5978C16.0096 4.59244 16.0031 4.58534 15.9983 4.57703C15.9936 4.56873 15.9908 4.55944 15.9902 4.5499C15.9664 4.15929 15.9008 3.75569 15.7905 3.349C15.7878 3.33908 15.7876 3.32863 15.7899 3.3186C15.7921 3.30857 15.7969 3.29926 15.8036 3.29149L16.0571 3.00025C16.1619 2.87983 16.097 2.69111 15.9404 2.66055L15.5614 2.58668C15.5513 2.58469 15.5419 2.58025 15.5339 2.57374C15.5259 2.56723 15.5197 2.55886 15.5157 2.54936C15.3527 2.16082 15.1563 1.80213 14.9351 1.4794C14.9297 1.47152 14.9261 1.4625 14.9248 1.45304C14.9234 1.44358 14.9242 1.43393 14.9272 1.42483L15.0361 1.09033C15.0855 0.938552 14.9521 0.790145 14.7959 0.823239L14.5045 0.884973C14.4939 0.887188 14.4829 0.886625 14.4726 0.88334C14.4623 0.880054 14.4531 0.874157 14.4457 0.866223C14.2307 0.63527 14.0018 0.433473 13.7641 0.264911C13.7227 0.235567 13.7313 0.171395 13.7792 0.154848L13.7804 0.154427C15.3617 -0.388949 17.1167 0.547333 17.7004 2.24566Z"
                                        fill="#59CC56" />
                                    <path opacity="0.2"
                                        d="M16.9055 5.12572C16.9074 5.10383 16.9206 5.08442 16.9403 5.07481L17.2081 4.9444C17.3517 4.87451 17.3657 4.67544 17.2334 4.58609L16.9419 4.38917C16.934 4.38381 16.9274 4.37671 16.9227 4.3684C16.9179 4.36009 16.9151 4.35081 16.9146 4.34126C16.8907 3.95065 16.8251 3.54706 16.7148 3.14037C16.7121 3.13045 16.7119 3.12 16.7142 3.10997C16.7165 3.09994 16.7212 3.09062 16.728 3.08286L16.9814 2.79162C17.0862 2.6712 17.0213 2.48248 16.8647 2.45192L16.4858 2.378C16.4757 2.37601 16.4662 2.37157 16.4582 2.36506C16.4503 2.35855 16.444 2.35018 16.4401 2.34069C16.277 1.95214 16.0807 1.59345 15.8594 1.27072C15.854 1.26284 15.8505 1.25382 15.8491 1.24436C15.8477 1.2349 15.8485 1.22525 15.8515 1.21615L15.9604 0.881654C16.0098 0.729873 15.8764 0.581467 15.7202 0.614561L15.4288 0.676295C15.4182 0.67851 15.4073 0.677947 15.397 0.674661C15.3867 0.671375 15.3774 0.665479 15.37 0.657545C15.1551 0.426592 14.9262 0.224795 14.6884 0.0562324C14.6796 0.050029 14.6726 0.0416504 14.668 0.0319197C14.6635 0.0221891 14.6616 0.0114413 14.6624 0.000732422C14.3621 0.0049191 14.0644 0.0568167 13.7804 0.154482L13.7792 0.154904C13.7313 0.171404 13.7227 0.235623 13.7641 0.264967C14.0018 0.433529 14.2307 0.635279 14.4457 0.866279C14.4607 0.882404 14.483 0.889576 14.5045 0.885029L14.7959 0.823295C14.9521 0.790201 15.0855 0.938561 15.0361 1.09039L14.9272 1.42489C14.9212 1.44336 14.9241 1.46347 14.9351 1.47945C15.1564 1.80223 15.3527 2.16087 15.5157 2.54947C15.5238 2.56873 15.5409 2.58279 15.5614 2.58678L15.9404 2.66065C16.0971 2.69122 16.1619 2.87994 16.0571 3.00036L15.8036 3.29159C15.7969 3.29936 15.7922 3.30868 15.7899 3.31871C15.7876 3.32874 15.7878 3.33918 15.7905 3.34911C15.9008 3.75579 15.9664 4.15939 15.9902 4.55C15.9914 4.5694 16.0014 4.58703 16.0176 4.5979L16.3091 4.79483C16.4414 4.88417 16.4273 5.08325 16.2838 5.15314L16.016 5.28354C16.0063 5.2883 15.998 5.29549 15.9919 5.30441C15.9858 5.31333 15.9821 5.32368 15.9812 5.33445C15.9536 5.64875 15.8971 5.94865 15.8131 6.22775C15.7985 6.27631 15.8448 6.32168 15.8927 6.30523L15.8939 6.30481C16.2243 6.19133 16.5309 6.01777 16.7982 5.79289C16.8503 5.57345 16.8862 5.35045 16.9055 5.12572Z"
                                        fill="black" />
                                    <path
                                        d="M19.9592 3.39355C17.9242 3.34897 16.2408 4.84883 16.1993 6.74361L16.1992 6.74502C16.198 6.80248 16.2629 6.8368 16.3103 6.80427C16.5827 6.61742 16.887 6.45298 17.2169 6.31484C17.24 6.30523 17.2563 6.28433 17.2599 6.25967L17.3084 5.92555C17.3344 5.74648 17.5445 5.66267 17.6866 5.7747L17.9997 6.02159C18.017 6.03523 18.0395 6.03997 18.0608 6.03458C18.4908 5.92569 18.9492 5.85734 19.4264 5.83616C19.438 5.83566 19.4494 5.8323 19.4594 5.82637C19.4695 5.82044 19.4779 5.81213 19.484 5.80217L19.7111 5.42806C19.805 5.27337 20.0311 5.27834 20.1181 5.43697L20.3286 5.82064C20.34 5.84141 20.361 5.85505 20.3847 5.85711C20.8604 5.89916 21.3154 5.98752 21.7402 6.11516C21.7613 6.12148 21.784 6.11773 21.8018 6.10489L22.1255 5.87197C22.2723 5.76626 22.4785 5.85917 22.4967 6.03922L22.5305 6.37517C22.5329 6.39997 22.5484 6.42158 22.571 6.43217C22.8945 6.58466 23.1913 6.76222 23.4553 6.96083C23.5012 6.99542 23.5676 6.96397 23.5688 6.9065L23.5689 6.90509C23.6103 5.01031 21.9943 3.43812 19.9592 3.39355Z"
                                        fill="#59CC56" />
                                    <path opacity="0.2"
                                        d="M23.5687 6.9051C23.5753 6.59677 23.5375 6.28909 23.4564 5.99155C23.2669 5.84196 23.0672 5.70568 22.8589 5.58369C22.8483 5.57752 22.8395 5.56871 22.8333 5.55812C22.8271 5.54753 22.8238 5.53553 22.8236 5.52327L22.82 5.18567C22.818 5.00474 22.621 4.89378 22.4652 4.98594L22.1221 5.18905C22.1127 5.19457 22.1023 5.19787 22.0914 5.19869C22.0806 5.19952 22.0698 5.19784 22.0597 5.19378C21.648 5.02869 21.2028 4.90006 20.7326 4.81564C20.7212 4.8136 20.7104 4.80876 20.7012 4.80155C20.692 4.79434 20.6848 4.78498 20.6801 4.7743L20.5048 4.37333C20.4323 4.20753 20.2075 4.18241 20.1002 4.3281L19.8406 4.68041C19.8265 4.69949 19.8038 4.71017 19.7801 4.7091C19.303 4.68753 18.8404 4.71463 18.4024 4.78471C18.3916 4.78643 18.3807 4.78567 18.3703 4.78248C18.36 4.77929 18.3505 4.77377 18.3426 4.76633L18.0528 4.49244C17.9212 4.36817 17.7045 4.43286 17.6626 4.60888L17.5845 4.93733C17.5787 4.96156 17.5605 4.98092 17.5368 4.98847C17.1958 5.09661 16.8781 5.23316 16.5901 5.39492C16.5805 5.40034 16.5697 5.4034 16.5587 5.40384C16.5476 5.40428 16.5367 5.40209 16.5266 5.39746C16.326 5.80836 16.2096 6.26319 16.199 6.74361L16.199 6.74502C16.1978 6.80249 16.2627 6.8368 16.3101 6.80427C16.5825 6.61738 16.8868 6.45299 17.2167 6.31485C17.2397 6.30519 17.2561 6.28433 17.2597 6.25967L17.3081 5.92555C17.3341 5.74649 17.5442 5.66267 17.6863 5.77471L17.9995 6.0216C18.0168 6.03524 18.0393 6.03997 18.0606 6.03458C18.4906 5.92569 18.949 5.85735 19.4261 5.83616C19.4378 5.83566 19.4492 5.8323 19.4592 5.82637C19.4693 5.82045 19.4777 5.81213 19.4838 5.80217L19.7108 5.42806C19.8047 5.27338 20.0308 5.27835 20.1179 5.43697L20.3284 5.82064C20.3397 5.84141 20.3608 5.85505 20.3844 5.85711C20.8602 5.89916 21.3152 5.98752 21.7399 6.11516C21.761 6.12149 21.7837 6.11774 21.8016 6.10489L22.1252 5.87197C22.2721 5.76627 22.4783 5.85917 22.4964 6.03922L22.5302 6.37517C22.5327 6.39997 22.5482 6.42153 22.5707 6.43217C22.8942 6.58466 23.1911 6.76222 23.455 6.96083C23.5009 6.99542 23.5673 6.96397 23.5686 6.9065C23.5687 6.90603 23.5687 6.90556 23.5687 6.9051Z"
                                        fill="black" />
                                    <path
                                        d="M15.6425 2.10291C17.3339 3.23541 17.8503 5.4301 16.7959 7.00496L16.7951 7.00613C16.7631 7.05389 16.6902 7.04466 16.6701 6.9908C16.5545 6.68138 16.3998 6.37196 16.2091 6.06938C16.2026 6.05903 16.1988 6.04716 16.1982 6.03491C16.1976 6.02267 16.2002 6.01048 16.2057 5.99954L16.3579 5.69818C16.4395 5.53669 16.3157 5.34741 16.135 5.35749L15.7369 5.37971C15.7261 5.38031 15.7152 5.37841 15.7053 5.37416C15.6953 5.36991 15.6864 5.36342 15.6794 5.35519C15.39 5.01905 15.054 4.69979 14.6756 4.40836C14.6663 4.40127 14.659 4.392 14.6542 4.38138C14.6493 4.37075 14.6472 4.35911 14.648 4.34747L14.677 3.91083C14.689 3.73027 14.5011 3.60446 14.3387 3.68433L13.946 3.8775C13.9355 3.88264 13.924 3.88511 13.9123 3.8847C13.9006 3.88429 13.8893 3.88101 13.8792 3.87516C13.4656 3.63629 13.0424 3.44724 12.6214 3.30769C12.6111 3.3043 12.6017 3.29858 12.594 3.29098C12.5862 3.28338 12.5804 3.2741 12.5768 3.26386L12.4457 2.88727C12.3862 2.71636 12.164 2.67399 12.0458 2.81096L11.8251 3.06652C11.8088 3.08541 11.7838 3.09418 11.7592 3.08991C11.4068 3.02888 11.0619 3.00375 10.7317 3.01468C10.6742 3.0166 10.6379 2.95275 10.6699 2.90494L10.6707 2.90377C11.7252 1.329 13.9511 0.97041 15.6425 2.10291Z"
                                        fill="#59CC56" />
                                    <path opacity="0.2"
                                        d="M16.8125 5.05215C16.8054 5.0422 16.8009 5.03057 16.7996 5.01838C16.7983 5.0062 16.8001 4.99389 16.805 4.98263L16.9394 4.67293C17.0115 4.50695 16.8768 4.32521 16.697 4.34579L16.3009 4.39121C16.2901 4.39244 16.2792 4.39118 16.269 4.38752C16.2588 4.38386 16.2496 4.37791 16.2421 4.37012C15.9335 4.05141 15.5795 3.75231 15.1847 3.48343C15.1751 3.47688 15.1672 3.46805 15.1618 3.45773C15.1563 3.4474 15.1535 3.43589 15.1536 3.42423L15.1571 2.98665C15.1586 2.80571 14.9636 2.69106 14.8062 2.78026L14.4255 2.99598C14.4048 3.00765 14.3798 3.00816 14.3586 2.99752C13.9318 2.78316 13.4983 2.61915 13.0699 2.5044C13.0594 2.50161 13.0497 2.49645 13.0415 2.48931C13.0334 2.48218 13.027 2.47326 13.0228 2.46324L12.87 2.09495C12.8006 1.92784 12.5763 1.89845 12.4663 2.04207L12.2609 2.31006C12.2457 2.32984 12.2213 2.34006 12.1965 2.33724C11.843 2.29707 11.499 2.29201 11.1716 2.32168C10.982 2.49498 10.8138 2.69039 10.6707 2.90373L10.6699 2.9049C10.6379 2.95271 10.6742 3.01651 10.7317 3.01463C11.0619 3.00366 11.4068 3.02884 11.7592 3.08987C11.7713 3.09198 11.7837 3.09094 11.7952 3.08684C11.8068 3.08274 11.8171 3.07573 11.8251 3.06648L12.0458 2.81091C12.164 2.67395 12.3862 2.71637 12.4457 2.88723L12.5768 3.26382C12.584 3.28463 12.6005 3.30071 12.6214 3.30765C13.0425 3.4472 13.4656 3.63624 13.8792 3.87507C13.8997 3.88693 13.9247 3.88787 13.946 3.87741L14.3387 3.68424C14.5011 3.60437 14.689 3.73023 14.677 3.91074L14.648 4.34738C14.6464 4.37101 14.6568 4.39384 14.6756 4.40827C15.054 4.6997 15.39 5.01891 15.6794 5.3551C15.6937 5.37179 15.7149 5.38084 15.7369 5.37962L16.135 5.3574C16.3157 5.34732 16.4395 5.5366 16.3579 5.69809L16.2057 5.99945C16.1944 6.02171 16.1958 6.0482 16.2091 6.06929C16.3998 6.37187 16.5545 6.68124 16.6701 6.99071C16.6902 7.04457 16.7631 7.05381 16.7951 7.00604L16.7959 7.00487C17.0385 6.64248 17.197 6.24709 17.2781 5.83956C17.1521 5.57312 16.9963 5.30916 16.8125 5.05215Z"
                                        fill="black" />
                                    <path
                                        d="M20.7082 5.56354C19.141 4.29369 16.9121 4.44721 15.7298 5.90638C15.7295 5.90675 15.7292 5.90711 15.7289 5.90746C15.6931 5.95176 15.7231 6.01799 15.78 6.02127C16.1068 6.04021 16.445 6.09604 16.7872 6.188C16.7989 6.19118 16.8113 6.19128 16.823 6.18827C16.8348 6.18526 16.8456 6.17926 16.8543 6.17085L17.0951 5.93849C17.2241 5.81399 17.4395 5.87582 17.4829 6.04982L17.5784 6.43326C17.5836 6.45444 17.5984 6.47179 17.6184 6.48051C18.0213 6.6561 18.4219 6.88077 18.8086 7.15372C18.818 7.16041 18.8289 7.16467 18.8404 7.16612C18.8518 7.16758 18.8635 7.16618 18.8743 7.16207L19.2792 7.00677C19.4466 6.94255 19.6208 7.08365 19.5926 7.26074L19.5247 7.68904C19.5229 7.70046 19.5239 7.71214 19.5277 7.72305C19.5315 7.73397 19.538 7.74378 19.5465 7.75161C19.8937 8.07327 20.1965 8.41855 20.4518 8.77635C20.4645 8.79411 20.4845 8.80494 20.5063 8.80569L20.9012 8.81961C21.0804 8.82594 21.1855 9.02385 21.0905 9.17586L20.9131 9.45955C20.9067 9.46987 20.9031 9.48166 20.9026 9.49379C20.9021 9.50592 20.9047 9.51798 20.9102 9.52879C21.0712 9.84454 21.1959 10.1638 21.2822 10.4796C21.2972 10.5345 21.3683 10.5501 21.4042 10.5059C21.4044 10.5055 21.4047 10.5052 21.4051 10.5048C22.5874 9.04565 22.2754 6.83338 20.7082 5.56354Z"
                                        fill="#59CC56" />
                                    <path
                                        d="M13.4228 3.46325C15.4371 3.3575 17.1498 4.79216 17.2483 6.66758L17.2484 6.66899C17.2513 6.72589 17.1881 6.7618 17.1401 6.73105C16.8646 6.55419 16.5583 6.40058 16.2274 6.27374C16.216 6.26941 16.206 6.26223 16.1982 6.25288C16.1905 6.24354 16.1853 6.23235 16.1831 6.22039L16.125 5.89091C16.0938 5.71433 15.8832 5.63769 15.7459 5.75296L15.4432 6.00697C15.435 6.01388 15.4253 6.01879 15.4148 6.02135C15.4044 6.0239 15.3935 6.02402 15.383 6.02169C14.9538 5.92682 14.4977 5.87305 14.0245 5.86649C14.0129 5.86635 14.0016 5.86337 13.9914 5.8578C13.9813 5.85223 13.9727 5.84425 13.9664 5.83457L13.7302 5.47091C13.6325 5.32053 13.4087 5.3323 13.3273 5.49205L13.1305 5.87844C13.1252 5.88873 13.1175 5.89757 13.108 5.90417C13.0985 5.91077 13.0875 5.91492 13.0761 5.91627C12.6061 5.97233 12.1581 6.07358 11.7412 6.21285C11.7311 6.21626 11.7202 6.21729 11.7096 6.21585C11.699 6.21442 11.6888 6.21055 11.6799 6.20455L11.3523 5.98363C11.2036 5.88336 11.0022 5.98166 10.9897 6.16053L10.9664 6.49429C10.9655 6.5064 10.9615 6.51808 10.9548 6.5282C10.9481 6.53831 10.9388 6.5465 10.928 6.55199C10.6122 6.71277 10.3236 6.89764 10.0681 7.10239C10.0237 7.13802 9.95699 7.10891 9.95399 7.052L9.9539 7.0506C9.85542 5.17508 11.4085 3.569 13.4228 3.46325Z"
                                        fill="#59CC56" />
                                    <path opacity="0.2"
                                        d="M21.7247 9.94129C21.6385 9.62549 21.5137 9.30627 21.3528 8.99052C21.3472 8.97972 21.3446 8.96766 21.3451 8.95553C21.3456 8.9434 21.3492 8.9316 21.3556 8.92129L21.533 8.6376C21.6281 8.48559 21.5229 8.28763 21.3437 8.28135L20.9488 8.26743C20.9381 8.26707 20.9276 8.26423 20.9182 8.25914C20.9087 8.25405 20.9005 8.24684 20.8943 8.23809C20.639 7.88029 20.3362 7.53506 19.989 7.2134C19.9805 7.20556 19.9741 7.19575 19.9703 7.18483C19.9665 7.17392 19.9654 7.16224 19.9672 7.15082L20.0352 6.72252C20.0633 6.54543 19.8891 6.40434 19.7217 6.46856L19.3168 6.62385C19.306 6.62797 19.2944 6.62936 19.2829 6.6279C19.2714 6.62645 19.2605 6.62219 19.2511 6.61551C18.8644 6.34256 18.4639 6.11793 18.0609 5.94229C18.0511 5.93801 18.0423 5.93153 18.0354 5.92333C18.0285 5.91514 18.0235 5.90546 18.0209 5.89504L17.9254 5.5116C17.8821 5.3376 17.6667 5.27577 17.5376 5.40027L17.2969 5.63263C17.2881 5.64105 17.2773 5.64706 17.2655 5.65007C17.2538 5.65307 17.2414 5.65298 17.2297 5.64979C16.8875 5.55782 16.5492 5.50199 16.2225 5.48306C16.2132 5.48254 16.204 5.48015 16.1956 5.47602C16.1873 5.47188 16.1798 5.4661 16.1737 5.45901L16.1719 5.4606L16.1148 5.13665C16.0836 4.96007 15.873 4.88343 15.7356 4.9987L15.433 5.25271C15.4247 5.25961 15.415 5.26453 15.4046 5.26708C15.3942 5.26964 15.3833 5.26976 15.3728 5.26743C14.9436 5.17256 14.4875 5.11879 14.0142 5.11223C14.0027 5.11209 13.9913 5.10911 13.9812 5.10354C13.9711 5.09797 13.9625 5.08999 13.9562 5.08031L13.72 4.71665C13.6223 4.56627 13.3985 4.57804 13.3171 4.73779L13.1202 5.12418C13.115 5.13447 13.1073 5.14331 13.0978 5.14991C13.0883 5.15651 13.0773 5.16066 13.0658 5.16201C12.5959 5.21807 12.1479 5.31932 11.731 5.45859C11.7208 5.462 11.71 5.46303 11.6994 5.46159C11.6887 5.46015 11.6786 5.45629 11.6697 5.45029L11.342 5.22937C11.1934 5.1291 10.9919 5.2274 10.9795 5.40627L10.9562 5.74002C10.9553 5.75214 10.9513 5.76382 10.9446 5.77393C10.9379 5.78405 10.9286 5.79224 10.9178 5.79773C10.602 5.95851 10.3134 6.14338 10.0579 6.34813C10.0489 6.35539 10.0382 6.36026 10.0267 6.3623C10.0153 6.36434 10.0036 6.36348 9.99261 6.35981C9.95469 6.58806 9.94171 6.81977 9.95389 7.05084L9.95398 7.05224C9.95698 7.10915 10.0237 7.13826 10.0681 7.10263C10.3235 6.89793 10.6122 6.71306 10.928 6.55223C10.9388 6.54674 10.9481 6.53855 10.9548 6.52843C10.9615 6.51832 10.9655 6.50664 10.9664 6.49452L10.9897 6.16077C11.0022 5.9819 11.2036 5.88365 11.3523 5.98387L11.6799 6.20479C11.698 6.21698 11.7206 6.22002 11.7412 6.21309C12.1581 6.07382 12.6061 5.97257 13.076 5.91651C13.0875 5.91516 13.0985 5.911 13.108 5.9044C13.1175 5.8978 13.1252 5.88897 13.1305 5.87868L13.3273 5.49229C13.4087 5.33249 13.6325 5.32077 13.7302 5.47115L13.9664 5.83481C13.9727 5.84449 13.9813 5.85247 13.9914 5.85804C14.0016 5.86361 14.0129 5.86659 14.0245 5.86673C14.4977 5.87329 14.9538 5.92706 15.383 6.02193C15.4043 6.02662 15.4265 6.02127 15.4432 6.00721L15.7459 5.7532C15.769 5.7335 15.7959 5.71862 15.8249 5.7094C15.8538 5.70019 15.8844 5.69683 15.9147 5.69952C15.8497 5.76613 15.7878 5.8356 15.729 5.90774C15.6932 5.95204 15.7232 6.01827 15.7801 6.02156C15.9035 6.02868 16.0284 6.0411 16.1546 6.05873L16.1831 6.22063C16.1874 6.24496 16.2042 6.26516 16.2274 6.27398C16.5582 6.40082 16.8647 6.55448 17.1401 6.73129C17.1881 6.76209 17.2513 6.72613 17.2483 6.66923L17.2482 6.66782C17.236 6.43498 17.1984 6.20418 17.1358 5.97956C17.1339 5.97852 17.1318 5.97806 17.1298 5.97679C17.115 5.96727 17.0998 5.95813 17.0848 5.94876L17.0952 5.93873C17.2242 5.81423 17.4396 5.87606 17.483 6.05006L17.5785 6.43349C17.5837 6.45468 17.5985 6.47202 17.6185 6.48074C18.0215 6.65634 18.422 6.88101 18.8087 7.15396C18.8181 7.16065 18.829 7.1649 18.8405 7.16636C18.8519 7.16781 18.8636 7.16642 18.8744 7.16231L19.2793 7.00701C19.4467 6.94279 19.6209 7.08388 19.5927 7.26098L19.5248 7.68927C19.5211 7.71248 19.5293 7.73591 19.5466 7.75185C19.8938 8.07351 20.1966 8.41879 20.4519 8.77659C20.4646 8.79435 20.4846 8.80518 20.5065 8.80593L20.9014 8.81985C21.0806 8.82618 21.1857 9.02409 21.0906 9.1761L20.9133 9.45979C20.9069 9.4701 20.9032 9.4819 20.9027 9.49403C20.9022 9.50616 20.9049 9.51822 20.9104 9.52902C21.0713 9.84477 21.1961 10.164 21.2824 10.4798C21.2974 10.5348 21.3684 10.5504 21.4043 10.5061C21.5369 10.3422 21.653 10.1656 21.7507 9.97874C21.7381 9.96957 21.7289 9.95636 21.7247 9.94129Z"
                                        fill="black" />
                                    <path
                                        d="M16.1998 8.66075C16.7291 8.66075 17.1583 8.23159 17.1583 7.7022C17.1583 7.17281 16.7291 6.74365 16.1998 6.74365C15.6704 6.74365 15.2412 7.17281 15.2412 7.7022C15.2412 8.23159 15.6704 8.66075 16.1998 8.66075Z"
                                        fill="#E87941" />
                                    <path opacity="0.2"
                                        d="M16.524 6.80077C16.499 6.79137 16.4736 6.78318 16.4479 6.7762C16.4166 6.76788 16.385 6.76114 16.353 6.756C16.3451 6.75474 16.3374 6.75427 16.3295 6.75319C16.3059 6.74975 16.2821 6.74719 16.2583 6.7455C16.2566 6.74541 16.255 6.74508 16.2534 6.74499L16.2533 6.74541C16.1268 6.73828 16.0002 6.75643 15.8809 6.7988L15.8813 6.79824C15.8548 6.80777 15.8287 6.81845 15.8031 6.83025C15.783 6.83939 15.7631 6.84924 15.7437 6.85974C15.742 6.86067 15.7403 6.86152 15.7386 6.8625C15.6957 6.88605 15.6547 6.91282 15.6159 6.94256L15.6122 6.94552C15.5936 6.95995 15.5755 6.97505 15.5579 6.9908L15.5558 6.99272C15.4192 7.11604 15.3213 7.27628 15.2739 7.45406C15.1368 7.96542 15.4403 8.49103 15.9517 8.62805C16.3272 8.72869 16.7099 8.59111 16.9412 8.30869C16.759 8.37331 16.5614 8.38099 16.3746 8.33072C15.9584 8.21916 15.68 7.85011 15.6647 7.44089C15.8761 7.44108 16.0822 7.37447 16.2535 7.25058C16.2544 7.25428 16.2551 7.25798 16.256 7.26169C16.3629 7.67597 16.7019 7.96809 17.0978 8.03658C17.1082 8.00845 17.1177 7.97981 17.1256 7.95028C17.2557 7.46484 16.9886 6.96736 16.524 6.80077Z"
                                        fill="black" />
                                    <path
                                        d="M15.7173 7.17418C16.2719 7.17418 16.7215 6.72458 16.7215 6.16997C16.7215 5.61537 16.2719 5.16577 15.7173 5.16577C15.1627 5.16577 14.7131 5.61537 14.7131 6.16997C14.7131 6.72458 15.1627 7.17418 15.7173 7.17418Z"
                                        fill="#E87941" />
                                    <path opacity="0.2"
                                        d="M15.9367 6.72992C15.4009 6.58639 15.083 6.03571 15.2266 5.50002C15.2511 5.40906 15.2884 5.32202 15.3372 5.24146C15.0572 5.35635 14.8317 5.59499 14.7474 5.90989C14.6038 6.44563 14.9217 6.99627 15.4575 7.1398C15.8998 7.2583 16.3516 7.06175 16.5767 6.68825C16.3804 6.76883 16.1575 6.78913 15.9367 6.72992Z"
                                        fill="black" />
                                    <path
                                        d="M17.3838 7.85273C17.966 7.85273 18.4379 7.38076 18.4379 6.79856C18.4379 6.21635 17.966 5.74438 17.3838 5.74438C16.8016 5.74438 16.3296 6.21635 16.3296 6.79856C16.3296 7.38076 16.8016 7.85273 17.3838 7.85273Z"
                                        fill="#E87941" />
                                    <path opacity="0.2"
                                        d="M17.9799 7.37515C17.4161 7.52056 16.8413 7.18142 16.6959 6.61765C16.6378 6.39256 16.658 6.16615 16.738 5.96558C16.4156 6.2157 16.2546 6.64179 16.363 7.06194C16.5084 7.6257 17.0832 7.96484 17.647 7.81944C17.9857 7.73211 18.2422 7.4893 18.3624 7.18747C18.2491 7.27552 18.1189 7.3394 17.9799 7.37515Z"
                                        fill="black" />
                                    <path
                                        d="M17.5983 19.1921C17.61 19.0983 17.6163 19.0036 17.6163 18.9078C17.6163 17.0131 15.2713 15.4771 12.3786 15.4771C9.48588 15.4771 7.14087 17.0131 7.14087 18.9078C7.14087 19.0036 7.14715 19.0984 7.15892 19.1921H17.5983Z"
                                        fill="#FAE8B4" />
                                    <path
                                        d="M7.25016 3.91154C7.25016 4.24857 6.63914 4.48487 6.54038 4.789C6.43805 5.10418 6.78989 5.65384 6.59897 5.9162C6.40613 6.18118 5.77336 6.01539 5.50843 6.20823C5.24607 6.39915 5.20932 7.05315 4.89413 7.15548C4.59 7.25425 4.17718 6.74992 3.84019 6.74992C3.50316 6.74992 3.09033 7.2542 2.78621 7.15543C2.47102 7.0531 2.43427 6.39911 2.17191 6.20814C1.90693 6.01529 1.27421 6.18109 1.08136 5.91611C0.890441 5.65375 1.24229 5.10409 1.13996 4.78895C1.04119 4.48482 0.430176 4.24853 0.430176 3.91154C0.430176 3.57451 1.04119 3.33821 1.13996 3.03409C1.24229 2.7189 0.890441 2.16925 1.08136 1.90689C1.27421 1.6419 1.90697 1.8077 2.17191 1.61486C2.43427 1.42393 2.47102 0.769933 2.78621 0.667605C3.09033 0.568839 3.50316 1.07317 3.84014 1.07317C4.17718 1.07317 4.59 0.568886 4.89413 0.667652C5.20932 0.76998 5.24607 1.42398 5.50843 1.61495C5.77341 1.80779 6.40613 1.642 6.59897 1.90698C6.78989 2.16934 6.43805 2.719 6.54038 3.03414C6.63914 3.33821 7.25016 3.57451 7.25016 3.91154Z"
                                        fill="#FFD042" />
                                    <path
                                        d="M3.84036 5.51739C4.72732 5.51739 5.44634 4.79837 5.44634 3.9114C5.44634 3.02444 4.72732 2.30542 3.84036 2.30542C2.9534 2.30542 2.23438 3.02444 2.23438 3.9114C2.23438 4.79837 2.9534 5.51739 3.84036 5.51739Z"
                                        fill="#E87941" />
                                    <path opacity="0.2"
                                        d="M4.68233 5.00809C3.79536 5.00809 3.07634 4.28907 3.07634 3.4021C3.07634 2.99888 3.22531 2.63068 3.4707 2.34863C2.762 2.51565 2.23438 3.1517 2.23438 3.91135C2.23438 4.79832 2.95339 5.51734 3.84036 5.51734C4.32406 5.51734 4.75752 5.30316 5.05194 4.96482C4.93083 4.99352 4.80679 5.00804 4.68233 5.00809Z"
                                        fill="black" />
                                    <path
                                        d="M17.6161 18.9078C17.6161 18.3785 17.4329 17.8772 17.1061 17.4295C16.3971 17.5929 16.2589 18.1528 15.3148 18.1528C14.2097 18.1528 14.2097 17.385 13.1044 17.385C11.9993 17.385 11.9993 18.1528 10.894 18.1528C9.78934 18.1528 9.78934 17.385 8.68412 17.385C7.99216 17.385 7.73341 17.686 7.36544 17.911C7.21942 18.2265 7.14062 18.5611 7.14062 18.9077C7.14062 19.0035 7.14691 19.0983 7.15867 19.192H17.598C17.6098 19.0983 17.6161 19.0036 17.6161 18.9078Z"
                                        fill="#FFD042" />
                                    <path
                                        d="M23.0116 19.4941C23.0116 19.1546 22.7774 18.8287 22.3477 18.5264C21.816 18.1523 21.3019 18.1528 20.6783 18.1528C19.5731 18.1528 19.5731 17.385 18.4679 17.385C17.3627 17.385 17.3627 18.1528 16.2575 18.1528C15.1523 18.1528 15.1523 17.385 14.0471 17.385C12.942 17.385 12.942 18.1528 11.8367 18.1528C10.732 18.1528 10.732 17.385 9.62681 17.385C8.52164 17.385 8.52164 18.1528 7.41642 18.1528C6.31125 18.1528 6.31125 17.385 5.20603 17.385C4.08919 17.385 3.88589 18.3106 2.69836 18.1318C2.16286 18.0512 1.61518 18.1782 1.16438 18.4782C0.68991 18.794 0.430176 19.1364 0.430176 19.4941C0.430176 20.3506 1.9201 20.9327 4.27941 21.2859C3.27877 21.5649 2.6925 21.9029 2.6925 22.2672C2.6925 23.2242 6.73463 24 11.7208 24C16.707 24 20.7491 23.2242 20.7491 22.2672C20.7491 21.9029 20.1629 21.5649 19.1623 21.286C21.5217 20.9327 23.0116 20.3506 23.0116 19.4941Z"
                                        fill="#3FC2C4" />
                                    <path opacity="0.2"
                                        d="M4.61452 20.3716C2.43774 20.0456 1.00205 19.5247 0.792801 18.7734C0.556316 19.0038 0.430176 19.2453 0.430176 19.4943C0.430176 20.2027 1.45013 20.7232 3.13754 21.0819C3.35096 20.8213 3.86705 20.58 4.61452 20.3716ZM20.5752 21.9275C19.34 22.602 15.9925 23.0857 12.0559 23.0857C7.67569 23.0857 4.0245 22.4869 3.20161 21.6927C2.87208 21.8725 2.6925 22.0659 2.6925 22.2674C2.6925 23.2244 6.73463 24.0001 11.7208 24.0001C16.707 24.0001 20.7491 23.2244 20.7491 22.2674C20.7492 22.151 20.6891 22.0374 20.5752 21.9275ZM19.4975 20.3716C20.1223 20.5458 20.5855 20.743 20.8453 20.9553C22.207 20.6042 23.0115 20.1233 23.0115 19.4942C23.0115 19.4171 22.9988 19.3407 22.9751 19.2651C22.3944 19.7586 21.163 20.1222 19.4975 20.3716Z"
                                        fill="black" />
                                    <path
                                        d="M14.7955 21.0696C14.4404 21.0696 14.2423 20.9139 14.1112 20.8108C14.0108 20.7319 13.9733 20.7024 13.8614 20.7024C13.7496 20.7024 13.7121 20.7319 13.6118 20.8108C13.4808 20.9138 13.2827 21.0696 12.9275 21.0696C12.5724 21.0696 12.3743 20.9138 12.2433 20.8108C12.1429 20.7319 12.1054 20.7024 11.9937 20.7024C11.7994 20.7024 11.6421 20.545 11.6421 20.3508C11.6421 20.1566 11.7994 19.9993 11.9937 19.9993C12.3488 19.9993 12.5468 20.155 12.6779 20.2581C12.7782 20.337 12.8157 20.3665 12.9275 20.3665C13.0394 20.3665 13.0769 20.337 13.1772 20.2581C13.3083 20.155 13.5063 19.9993 13.8614 19.9993C14.2166 19.9993 14.4147 20.155 14.5458 20.2581C14.6461 20.337 14.6837 20.3665 14.7955 20.3665C14.9074 20.3665 14.9449 20.337 15.0452 20.2581C15.1763 20.155 15.3743 19.9993 15.7295 19.9993C15.9237 19.9993 16.0811 20.1566 16.0811 20.3508C16.0811 20.545 15.9237 20.7024 15.7295 20.7024C15.6177 20.7024 15.5801 20.7319 15.4798 20.8108C15.3488 20.9139 15.1507 21.0696 14.7955 21.0696Z"
                                        fill="#FAE8B4" />
                                    <path
                                        d="M4.68453 13.8662C5.52673 13.4836 6.37836 13.3082 7.10342 13.3281C7.07918 13.2574 7.05114 13.1881 7.01942 13.1205C6.49545 12.0033 5.07983 11.5478 3.85751 12.103C2.6352 12.6581 2.06914 14.0138 2.59311 15.131C2.62486 15.1987 2.66025 15.2647 2.69914 15.3286C3.15415 14.7726 3.84233 14.2487 4.68453 13.8662Z"
                                        fill="#59CC56" />
                                    <path opacity="0.2"
                                        d="M7.01951 13.1205C6.91522 12.8986 6.77252 12.6969 6.59801 12.5247C6.62708 12.5877 6.65299 12.6521 6.67564 12.7176C5.95053 12.6977 5.09895 12.8732 4.25675 13.2557C3.50103 13.599 2.86995 14.0562 2.41943 14.5481C2.45871 14.8246 2.55392 15.0901 2.69923 15.3285C3.15425 14.7726 3.84242 14.2487 4.68462 13.8662C5.52682 13.4836 6.37845 13.3082 7.10351 13.3281C7.07927 13.2574 7.05123 13.1881 7.01951 13.1205Z"
                                        fill="black" />
                                    <path
                                        d="M4.50844 12.1259C5.45766 12.3741 6.30413 12.7829 6.93403 13.2575C6.95035 13.19 6.96282 13.1206 6.97116 13.0492C7.10757 11.8825 6.10135 10.6447 4.72369 10.2845C3.34603 9.92434 2.11871 10.5781 1.9823 11.7447C1.974 11.816 1.96989 11.8877 1.96997 11.9595C2.67019 11.8327 3.55918 11.8777 4.50844 12.1259Z"
                                        fill="#59CC56" />
                                    <path opacity="0.2"
                                        d="M6.93403 12.428C6.30413 11.9535 5.45766 11.5446 4.50844 11.2964C3.6586 11.0742 2.85746 11.0154 2.19638 11.0964C2.08477 11.2882 2.01028 11.5054 1.9823 11.7447C1.974 11.816 1.96989 11.8877 1.96997 11.9595C2.67019 11.8327 3.55918 11.8776 4.50844 12.1258C5.45766 12.374 6.30413 12.7828 6.93403 13.2574C6.95035 13.1899 6.96282 13.1205 6.97116 13.0491C6.99586 12.8378 6.9826 12.6243 6.93694 12.414C6.93591 12.4187 6.93516 12.4234 6.93403 12.428Z"
                                        fill="black" />
                                    <path
                                        d="M8.72523 12.6769C9.64614 12.6879 10.4826 12.8744 11.119 13.1736C11.1289 13.1062 11.1351 13.0379 11.1372 12.9687C11.1717 11.8376 10.1162 10.9077 8.77961 10.8918C7.44306 10.8759 6.33165 11.7799 6.2972 12.9109C6.29511 12.9794 6.29705 13.0479 6.30301 13.1161C6.95711 12.8323 7.80433 12.6659 8.72523 12.6769Z"
                                        fill="#59CC56" />
                                    <path opacity="0.2"
                                        d="M8.80408 12.1053C7.88533 12.0943 7.03506 12.2477 6.35533 12.5136C6.32089 12.6434 6.30138 12.7767 6.2972 12.9109C6.29511 12.9794 6.29705 13.0479 6.30301 13.1161C6.95711 12.8324 7.80433 12.666 8.72523 12.677C9.64614 12.6879 10.4826 12.8744 11.119 13.1736C11.1515 12.9549 11.1422 12.732 11.0913 12.5168C10.4508 12.2675 9.66161 12.1156 8.80408 12.1053Z"
                                        fill="black" />
                                    <path
                                        d="M6.10866 14.1521C6.51397 14.1157 6.81204 13.7465 6.77441 13.3273C6.73678 12.9082 6.37771 12.5979 5.9724 12.6343C5.56709 12.6707 5.26903 13.04 5.30666 13.4591C5.34428 13.8782 5.70335 14.1885 6.10866 14.1521Z"
                                        fill="#E87941" />
                                    <path opacity="0.2"
                                        d="M5.76917 13.3472C5.65025 13.1567 5.62419 12.9328 5.67781 12.731C5.66379 12.739 5.64964 12.7467 5.63595 12.7557C5.29433 12.9824 5.19678 13.4534 5.41812 13.8079C5.63942 14.1623 6.09579 14.2658 6.43742 14.0391C6.59544 13.9343 6.70048 13.7769 6.74661 13.6033C6.41042 13.7955 5.98165 13.6874 5.76917 13.3472Z"
                                        fill="black" />
                                    <path
                                        d="M7.42053 14.1765C7.85227 14.1377 8.16977 13.7444 8.12969 13.2979C8.08961 12.8515 7.70712 12.5209 7.27538 12.5597C6.84365 12.5985 6.52614 12.9918 6.56623 13.4383C6.60631 13.8847 6.98879 14.2152 7.42053 14.1765Z"
                                        fill="#E87941" />
                                    <path opacity="0.2"
                                        d="M7.04016 13.3473C6.90957 13.1382 6.8836 12.8911 6.94791 12.6711C6.93769 12.6773 6.92724 12.6827 6.91716 12.6893C6.55327 12.9308 6.44935 13.4326 6.68513 13.8101C6.92087 14.1876 7.40701 14.2979 7.7709 14.0565C7.93327 13.9488 8.04343 13.7891 8.09522 13.6119C7.73508 13.8278 7.26943 13.7144 7.04016 13.3473Z"
                                        fill="black" />
                                </g>
                                <defs>
                                    <clipPath id="clip0_12_4294">
                                        <rect width="24" height="24" fill="white" />
                                    </clipPath>
                                </defs>
                            </svg>