<svg xmlns="http://www.w3.org/2000/svg" width="24" height="24" viewBox="0 0 24 24" fill="none">
                                <g clip-path="url(#clip0_12_4341)">
                                    <path
                                        d="M3.53924 15.931C2.46347 16.2825 1.61589 16.865 1.14533 17.8062C0.548629 19.001 0.851942 20.1093 1.28423 20.8776C1.71653 21.6458 2.29197 22.1248 2.29197 22.1248C2.67891 22.4451 3.16081 21.8669 2.77387 21.5451C2.77387 21.5451 2.29906 21.1454 1.94047 20.5105C1.58329 19.8727 1.36361 19.0463 1.81574 18.1406C2.17858 17.415 2.85041 16.943 3.77168 16.6425C4.7043 16.3378 5.89204 16.2173 7.20167 16.2003C7.7431 16.2386 7.73318 15.4009 7.19175 15.4519C5.84527 15.4689 4.59233 15.5866 3.53924 15.931ZM18.0061 11.4607C17.5838 11.4919 17.5285 12.0886 17.9353 12.1977C18.8367 12.4698 19.5539 12.8001 19.9167 13.1445C20.0981 13.3174 20.1917 13.4761 20.2229 13.6491C20.2541 13.822 20.23 14.0261 20.0953 14.2968C19.7551 14.9771 19.004 15.3811 17.8842 15.5965C16.7645 15.8091 15.3188 15.8148 13.7569 15.7453C13.2566 15.7226 13.2226 16.4738 13.7229 16.4965C15.3075 16.5674 16.7929 16.5674 18.0246 16.3321C19.2577 16.0968 20.2824 15.6022 20.7671 14.6313C20.9571 14.2529 21.0265 13.8716 20.9613 13.5158C20.8875 13.1619 20.7028 12.8407 20.4341 12.5988C19.9054 12.0956 19.1046 11.7626 18.155 11.4777C18.107 11.4621 18.0564 11.4563 18.0061 11.4607ZM1.12974 1.50095C1.12974 1.50095 5.36195 1.50804 8.61336 2.11325C10.4871 2.46192 11.6054 2.92964 11.9952 3.43138C12.1893 3.68225 12.1936 3.92746 12.0235 4.24211C11.8208 4.61629 11.3474 5.10669 10.3992 5.72466C9.28943 6.45034 8.59776 7.0598 8.22784 7.64942C8.03933 7.95131 7.9387 8.24612 7.94011 8.54377C7.94153 8.84141 8.0535 9.11496 8.23067 9.34174C8.58784 9.79529 9.17321 10.0901 9.88472 10.3438C10.5948 10.5989 11.4452 10.8044 12.358 10.9958C12.8583 11.1163 13.0199 10.3537 12.5139 10.2616C11.6153 10.0731 10.789 9.87183 10.137 9.63796C9.48503 9.40552 9.0173 9.1263 8.82312 8.88251C8.74055 8.78648 8.69395 8.66472 8.69131 8.5381C8.69131 8.41621 8.73241 8.25746 8.86139 8.04769C9.1236 7.62958 9.7444 7.04988 10.8102 6.35254C11.774 5.72182 12.3736 5.16197 12.6812 4.59786C13.0241 3.97423 12.9292 3.41154 12.5876 2.97074C11.9044 2.09199 10.1923 1.64127 8.75226 1.37339C5.38605 0.746921 1.12974 0.749756 1.12974 0.749756C0.620914 0.752591 0.626583 1.50095 1.12974 1.50095Z"
                                        fill="#356287" />
                                    <path
                                        d="M5.33218 17.2661L4.33862 18.2611C4.29157 18.3077 4.25865 18.3667 4.24365 18.4312L3.23167 22.8193C3.21803 22.8775 3.21948 22.9383 3.23588 22.9958C3.25228 23.0533 3.28308 23.1057 3.32536 23.148C3.36765 23.1903 3.42003 23.2211 3.47755 23.2374C3.53506 23.2538 3.59581 23.2553 3.65404 23.2417L8.04215 22.2283C8.1065 22.2137 8.16545 22.1812 8.21224 22.1347L9.11934 21.2276L5.33218 17.2661Z"
                                        fill="#FFCCAA" />
                                    <path
                                        d="M8.04072 22.2282C8.10507 22.2136 8.16401 22.1812 8.2108 22.1347L9.11791 21.2261L7.22574 19.2461L3.3252 23.1466C3.36686 23.1891 3.41871 23.2201 3.47579 23.2367C3.53287 23.2533 3.59326 23.255 3.65119 23.2416L8.04072 22.2282Z"
                                        fill="#FFB380" />
                                    <path
                                        d="M16.2189 6.37949L4.67597 17.9238C4.6312 17.9688 4.59942 18.025 4.58401 18.0865C4.56861 18.148 4.57014 18.2126 4.58844 18.2733C4.60675 18.3341 4.64115 18.3887 4.688 18.4315C4.73486 18.4743 4.79241 18.5036 4.85455 18.5163L6.26057 18.7969V19.8599C6.26057 20.0541 6.41648 20.2114 6.61207 20.2114H7.67508L7.95572 21.616C7.96823 21.6783 7.99738 21.736 8.04007 21.783C8.08275 21.83 8.13738 21.8646 8.19815 21.8831C8.25891 21.9015 8.32355 21.9032 8.38518 21.8879C8.44681 21.8725 8.50314 21.8408 8.54817 21.796L20.0925 10.2531C20.1581 10.1872 20.1949 10.098 20.1949 10.0051C20.1949 9.9121 20.1581 9.82292 20.0925 9.75704L16.7149 6.37807C16.6491 6.31247 16.5599 6.27563 16.4669 6.27563C16.3739 6.27563 16.2848 6.31389 16.2189 6.37949Z"
                                        fill="#5299D3" />
                                    <path
                                        d="M3.76317 20.512L3.23167 22.8194C3.21803 22.8776 3.21948 22.9384 3.23588 22.9959C3.25228 23.0534 3.28308 23.1058 3.32536 23.1481C3.36765 23.1904 3.42003 23.2212 3.47755 23.2376C3.53506 23.254 3.59581 23.2554 3.65404 23.2418L5.94164 22.7131L3.76317 20.512Z"
                                        fill="#356287" />
                                    <path
                                        d="M18.4044 8.06763L6.36255 20.108C6.39525 20.1409 6.43413 20.1669 6.47694 20.1847C6.51975 20.2024 6.56565 20.2115 6.612 20.2115H7.67502L7.95565 21.6161C7.96816 21.6783 7.99731 21.7361 8.04 21.7831C8.08268 21.8301 8.13731 21.8647 8.19808 21.8832C8.25885 21.9016 8.32348 21.9033 8.38511 21.8879C8.44674 21.8726 8.50307 21.8409 8.5481 21.7961L20.0924 10.2532C20.158 10.1873 20.1949 10.0981 20.1949 10.0051C20.1949 9.91217 20.158 9.82299 20.0924 9.75711L18.4044 8.06763Z"
                                        fill="#3587CB" />
                                    <path
                                        d="M20.1179 3.22169C19.6601 3.22169 19.2037 3.3946 18.8564 3.74185L16.2188 6.37954L20.0924 10.2532L22.7286 7.61689C23.4231 6.92239 23.4231 5.78851 22.7286 5.09401L21.3793 3.74185C21.2136 3.57639 21.0169 3.44527 20.8005 3.356C20.584 3.26674 20.352 3.2211 20.1179 3.22169Z"
                                        fill="#EEEEEE" />
                                    <path
                                        d="M22.0542 4.41797L18.1565 8.31568L20.0926 10.2532L22.7289 7.61693C23.4234 6.92243 23.4234 5.78855 22.7289 5.09405L22.0542 4.41797Z"
                                        fill="#D0D0D0" />
                                    <path
                                        d="M4.85447 21.616L3.32373 23.1467C3.36575 23.1895 3.41809 23.2207 3.47569 23.2373C3.53329 23.2539 3.59421 23.2554 3.65256 23.2417L5.94016 22.713L4.85447 21.616Z"
                                        fill="#2C5170" />
                                    <path
                                        d="M17.2662 5.33203L15.1714 7.42688L19.0436 11.3005L21.1413 9.20565L17.2662 5.33203Z"
                                        fill="#FFCA28" />
                                    <path
                                        d="M19.2039 7.26807L17.1062 9.36433L19.0437 11.3004L21.1414 9.20559L19.2039 7.26807Z"
                                        fill="#ECB200" />
                                </g>
                                <defs>
                                    <clipPath id="clip0_12_4341">
                                        <rect width="24" height="24" fill="white" />
                                    </clipPath>
                                </defs>
                            </svg>